<?xml version="1.0" encoding="UTF-8"?><svg id="Layer_1" xmlns="http://www.w3.org/2000/svg" viewBox="0 0 256 256"><path d="m193.8,117.81c-.12.18-.25.36-.39.53-4.71,6.21-10,11.89-15.88,17.03-.07.06-.1.14-.09.23.35,2.93.55,4.84.59,5.74.21,5.04-.39,9.98-1.8,14.82-1.94,6.63-5.51,12.19-10.73,16.69-2.65,2.28-5.75,4.16-9.21,4.32-9.46.42-7.35-15.89-8.08-21.25-.01-.08-.05-.1-.12-.05-19.53,11.99-41.51,19.14-64.13,22.04-3.79.49-7.59.93-11.39,1.32-.46.05-1.01.2-1.66.45-4.7,1.83-8.93,4.44-12.68,7.81-.14.13-.19.33-.11.51,1.44,3.34,2.34,6.85,2.7,10.51,1.45,15.03-7.64,25.92-22.28,28.61-2.85.52-6.12.83-9.81.91-5.11.12-13.95.28-16.88-5.09-3.15-5.77,2.53-15.44,6.02-20.34,2.04-2.87,2.98-6.68,4.73-9.88,1.97-3.57,4.48-6.74,7.53-9.49,1.98-1.79,4.34-3.37,5.8-5.7,3.15-5.02,4.74-10.35,5.9-16.16.5-2.53,1-5.06,1.5-7.59,2.83-14.42,7.99-27.91,15.48-40.46,7.85-13.14,18.54-24.1,30.68-33.35,11.23-8.55,23.38-16.07,35.74-22.52,3.81-1.98,8.12-4.16,12.94-6.52,8.22-4.04,16.11-8.66,24.11-13.11,3.5-1.95,7.74-3.98,12.71-6.08,6.65-2.81,13.38-4.05,20.22-3.74,2.85.13,5.98.7,9.41,1.71,10.6,3.13,20.22,8.95,23.05,20.38.13.51.41.91.83,1.29,1.95,1.77,4.63,4.03,8.05,6.77,2.45,1.97,4.22,4.8,4.92,7.98.02.09.08.14.18.13,1.06-.09,2.01.19,2.83.86,0,0,.01.02,0,.02l-.04.07s-.05.05-.09.02c-.76-.48-1.6-.69-2.51-.62-.09,0-.14.06-.13.15l.04.87c0,.1.05.17.15.21,1.05.42,2.03.98,2.93,1.66.34.25.31.3-.07.13-.95-.42-1.75-1.17-2.86-1.39-.12-.02-.18.03-.18.15l.02.75c0,.08.04.15.11.19,1.58,1,2.08,1.82,3.07,3.02.02.03.02.05,0,.07h0s-.05.02-.07,0c-1.04-.99-1.48-1.89-2.98-2.69-.12-.06-.17-.03-.17.1.02.53-.06,1.03-.24,1.52-.04.09-.02.18.05.25.66.71,2.12,2.05,2.44,2.91.11.3.07.31-.13.05-.72-.95-1.53-1.82-2.44-2.59-.04-.04-.11-.03-.15.01-.02.02-.03.04-.03.07-.02.54-.18,1.03-.49,1.47-.05.08-.05.18.01.26.93,1.11,1.56,2.36,1.91,3.76,0,.02,0,.03-.01.04l-.07.06s-.02,0-.02,0c-.52-1.19-.99-2.31-1.97-3.2-.09-.08-.16-.07-.21.04l-.58,1.24c-.05.1-.04.19.02.27.6.86,1.36,2.47,1.13,3.45-.1.41-.16.4-.18-.02-.06-1.11-.42-2.12-1.07-3.02-.06-.09-.19-.11-.28-.05-.02.02-.04.04-.06.06l-.29.49c-.05.08-.11.16-.17.24l-1.3,1.42c-.05.06-.07.14-.05.22.29.86.44,1.74.45,2.64,0,.02,0,.02-.02.02h-.07c-.08.01-.12-.02-.13-.11-.07-.8-.27-1.57-.59-2.32-.01-.03-.03-.04-.06-.02l-1.84,1.31s-.03.03-.02.06c.21.91.28,1.83.21,2.76,0,.05-.03.07-.08.04l-.06-.03s-.02-.02-.02-.03l-.31-2.31c-.04-.27-.19-.38-.46-.3l-1.13.31c-.09.02-.15.1-.16.19-.09.76-.06,2.15-.48,2.73-.04.05-.05.04-.05-.02.07-.96.08-1.77.03-2.66,0-.18-.1-.3-.27-.35l-.62-.2c-.2-.06-.29,0-.29.21l.09,3.21s-.02.07-.06.07h-.07s-.03,0-.03-.02l-.3-2.73c-.06-.55-.31-.65-.74-.3l-.23.18c-.38.31-.54.7-.49,1.19.1.96.09,1.91-.05,2.85,0,.03-.02.04-.04.04h-.08s-.04-.02-.04-.05l-.07-2.93c0-.09-.07-.16-.16-.16-.03,0-.05,0-.08.02l-1.73.98c-.07.04-.11.1-.13.18l-.46,2.46s-.02.04-.05.04h-.1s-.03-.02-.03-.05l.24-2.25c.02-.18-.06-.24-.22-.17l-1.26.46c-.2.07-.31.21-.35.42l-.19,1.02c-.01.06-.07.11-.14.1h-.07s-.04-.03-.04-.06l.2-1.27c.01-.08-.02-.11-.1-.09-.87.15-1.74.25-2.6.29-.8.04-1.89-.48-2.65.22-2.73,2.49-4.87,5.57-7.25,9.06-.05.07-.06.14-.04.23.86,2.95,1.64,5.07,2.35,6.35,1.55,2.8,3.45,5.93,4.41,8.63,2.94,8.29.25,16.02-4.62,22.92-4.57,6.48-9.89,12.28-15.95,17.4-2.03,1.72-4.14,3.43-6.62,4.27-3.05,1.04-4.12-1.34-4.07-3.83.13-5.75,1.96-11.09,4.01-16.39,1.53-3.95,2.25-8.04,2.16-12.29-.02-.97-.03-1.95-.01-2.92,0-.09-.02-.1-.07-.02ZM14.09,211.62c-1.16,2.3-1.8,4.79-1.91,7.46-.35,8.63,12.9,8.01,18.21,7.65,4.74,0,9.89-.79,14.33-2.59,8.45-3.43,14.12-10.65,14.97-19.82.72-7.73-1.52-15.74-6.02-22.04-.89-1.24-2.18-2.24-3.86-3,.32-.11.72-.03,1.2.23,1.27.61,2.34,1.4,3.21,2.35,1.1,1.2,2.14,2.77,3.14,4.7.05.1.12.11.2.03,4.18-3.93,9.09-6.7,14.54-8.48,1.01-.33,2.15-.23,2.89-.31,4.24-.41,7.94-.85,11.11-1.3,10.93-1.57,21.76-4.21,32.48-7.89,10.24-3.52,20.04-8.33,29.3-13.95.08-.05.12-.12.12-.21,0-.48-.05-.87-.12-1.19-2.27-9.51-4.03-19.44-3.03-29.3.03-.32.02-.52-.05-.61-2.13-2.98-4.03-6.15-5.71-9.52-1.74-3.78-3.06-7.74-3.96-11.88-.08-.38-.05-.77-.06-1.16,0-.02.02-.04.04-.05.02,0,.04.02.04.04,0,.08,0,.17-.02.27-.03.13,0,.23.06.28.45,2.06.95,3.77,1.48,5.14,2.02,5.14,4.86,10.66,8.25,15.41.08.11.13.1.15-.04.1-.85.2-1.7.27-2.54.15-1.56-.45-3.08-.86-4.56-1.06-3.82-1.05-7.62.03-11.4.02-.16.05-.26.09-.3.11-.09.17-.06.18.07.27,3.12-.28,6,.28,9.26.5,2.9,1.73,4.92,1.3,8.17-1.17,8.72-.58,17.62,1.22,26.21.82,3.9,1.91,7.73,2.02,11.73.13,4.27-.05,8.51,1.11,12.65,1.39,4.97,5.31,6.1,9.67,3.78,7.72-4.1,13.14-12.37,15.19-20.68,1.31-5.32,1.71-10.77.93-16.23-.5-4.41-1.26-8.53-3.14-12.59-.71-1.54-1.44-3.08-2.19-4.6-.5-1.03-1.1-3.02-1.8-5.96-.44-1.81-.98-3.57-1.62-5.29-1.33-3.61-4.42-6.91-8.35-7.48-2.6-.38-5.85.59-8.42,1.63-.04.02-.08,0-.1-.04-.01-.03,0-.06.02-.08.2-.18.46-.39.79-.61,3.3-2.22,6.78-2.66,10.41-1.33,3.21,1.82,5.52,4.31,6.81,7.75,1.47,3.92,2.02,8.23,3.83,11.99.69,1.43,1.36,2.88,2.01,4.34,1.19,2.68,1.97,5.48,2.36,8.39,0,.04.04.08.09.07.02,0,.03,0,.05-.02,3.33-3.13,6.55-6.39,9.65-9.78,2.89-3.16,5.4-6.64,7.96-10.07l11.65-15.15s.01-.03,0-.05h0s-.04-.02-.05,0c-.85.79-1.78,1.44-2.81,1.97-5.12,2.41-11.54.49-16.52-1.39-8.13-3.53-16.27-6.97-23.29-12.48-6.3-5.21-11.06-11.51-11.85-19.87,0-.02,0-.03.02-.03.02,0,.03,0,.03.02,1.61,6.89,5.12,12.69,10.54,17.41,2.87,2.61,6.13,4.91,9.78,6.89,5.31,2.88,10.59,5.35,15.86,7.41,4.18,1.69,10.41,3.31,14.61,1.39,1.49-.68,3-1.64,4.52-2.88,1.46-1.19,2.53-2.97,3.68-4.49.01-.02,0-.05-.01-.06-.01,0-.03,0-.04,0-5.1,2.79-10.51,2.97-16.11,1.77-8.65-2.34-15.28-7.47-20.6-14.56-2.86-4.12-5.1-8.49-7.18-13.03-.01-.03,0-.04.02-.06h0s.05,0,.06.02c2.34,4.11,4.7,8.22,7.5,12.03,5.16,7.31,12.55,12.82,21.31,14.85,4.63,1.16,9.16.8,13.6-1.08,2.07-.87,2.98-1.69,4.01-3.68.08-.15.06-.17-.07-.05-1.83,1.65-5.43,2.28-7.81,2.36-3.43.12-6.1-.94-9-2.64-1.37-.93-2.55-1.81-3.53-2.66-2.64-2.26-5.13-4.2-7.48-5.81-1.98-1.35-3.56-2.55-4.74-3.59-5.77-5.08-8.7-13.24-8.92-20.76,0-.04.02-.07.06-.07h0s.07.02.07.06c1.11,7.95,4.34,16.02,10.67,21.11,2.82,2.12,5.83,4.14,8.49,6.27,1.98,1.59,3.83,3.22,5.96,4.63,4.27,3,9.05,3.07,13.98,1.59,1.11-.33,2.04-.74,2.78-1.21,1.31-1.15,2.15-2.65,3.53-3.74.04-.03.04-.06.02-.1l-.04-.06s0,0,0,0c-.38.23-.78.41-1.21.52-3.05.81-5.82.77-9.02.05-5.81-1.31-13.07-3.9-14.64-10.48-.59-2.46-.61-4.91-.73-7.42l-.07-1.23s0-.02,0-.02h.07s0,0,0,0l1.19,6.68c1.16,7.46,7.73,9.89,14.13,11.44,2.99.72,7.88.92,10.73-.62.09-.05.1-.11.02-.18-.12-.1-.28-.1-.46,0-.24-.18-.45-.28-.65-.3-.37-.24-.68-.33-.93-.29-2.07.36-3.95.57-5.63.61-3.15.09-5.85-.99-8.11-3.24-.45-.45-.73-.95-.86-1.51-.12-.53,0-.59.36-.18,1.35,1.57,3.04,2.7,5.06,3.39,2.35.8,5.22.7,7.8.55.26-.01.55.12.83.1.13,0,.14-.04.02-.1-2.07-1.18-3.72-2.77-5.46-4.37-1.2-1.11-2.71-1.88-3.76-3.12-.19-.26-.3-.51-.32-.75-.01-.13.03-.15.14-.08,2.4,1.68,4.59,3.39,6.57,5.14,4.93,4.33,12.77,5.71,17.49.09.13-.16.26-.54.39-1.17.45-2.22.09-4.14-1.09-5.78-.02-.02-.02-.04-.01-.05.01-.02.02-.04.03-.06.01-.02.04-.03.06-.02,0,0,0,0,0,0,.36.22.65.51.87.86,1.24,1.95.9,3.58.53,5.71-.04.24.11.48.35.54,1.12.28,2.43.43,3.52-.19,2.14-1.23,3.58-3.27,4.55-5.26,2.2-4.5,1.37-9.69-1.97-13.38-1.44-1.59-4.05-3.28-5.69-4.76-1.65-1.49-3.32-2.95-5.02-4.38-1.8-1.52-3.37-1.79-5.65-1.16-1.42.39-2.86.72-4.3.97l-1.02.08c-4.35.13-6.74,2.81-8.59,6.45-1.22,2.38-2.32,4.28-3.29,5.7-.33.47-1.14,1.63-2.43,3.46-1.69,2.39-2.41,5.76-.42,8.15.14.1.08.13-.18.09-1.94-.26-2.08-3.82-1.81-5.22.73-3.6,3.46-5.79,4.88-8.37,2.51-4.55,4.86-10.88,10.86-11.17,1.67-.08,3.7-.47,6.12-1.16.42-.12,1.38-.25,2.89-.4.13-.01.14-.06.04-.13l-1-.71c-.19-.13-.23-.39-.1-.57.07-.1.17-.16.29-.17.88-.1,2.36.78,2.98,1.55.02.03.06.04.1.02.03-.02.04-.05.03-.08-.88-2.79-2.25-5.29-4.09-7.49-1.04-1.2-2.13-2.26-3.27-3.19-5.03-4.16-11.59-6.65-17.89-8.03-8.6-1.89-17.61-.41-25.6,2.98-4.87,2.07-9.62,4.4-14.23,7-7.58,4.27-15.09,8.57-22.91,12.4-7.32,3.59-14.06,7.08-21.62,11.36-11.09,6.27-21.43,13.32-31.02,21.14-13.82,11.27-24.45,25.02-31.88,41.25-3.78,8.25-6.64,16.81-8.56,25.66-.84,3.87-1.57,8.94-2.48,12.7-1.25,5.15-2.99,10.05-5.99,14.46-.41.6-1.25,1.48-1.96,2.06-4.78,3.93-9.27,8.68-11.58,13.97-.78,1.8-1.59,3.58-2.43,5.35-1.05,2.22-2.53,4.17-3.82,6.24-.98,1.57-1.84,3.26-2.6,5.08Zm197.5-117.16c-1.18,1.37-2.24,2.72-3.19,4.06-4.24,5.96-8.81,11.69-13.27,17.48-.19.25-.27.53-.24.84.43,5.2.14,10.63-1.7,15.52-1.75,4.66-3.28,8.79-4.06,13.44-.26,1.58-.65,4.92.17,5.92.62.76,1.38.9,2.3.43.91-.38,1.83-.9,2.77-1.58,7-5.07,13.26-11.81,18.37-18.75,4.07-5.53,6.95-11.65,6.16-18.61-.47-4.09-2.39-7.36-4.53-11.33-1.26-2.32-2.05-4.92-2.4-7.79-.01-.11-.05-.12-.13-.04-.16.16-.24.3-.24.41Z" fill="#040b0d" stroke-width="0"/><path d="m218.67,38.01c-.08.48-.55.42-1.44-.18-.55-.38-1.88-.96-4-1.76-.25-.1-.47-.16-.64-.19-.38-.07-.42.01-.12.26.51.41,1.14.78,1.87,1.1,1.01.44,2.01.92,2.99,1.43.62.32,1.25.63,1.9.91.32.14.59.41.9.6.07.04.12.03.15-.05.01-.03.02-.05.04-.09.02-.04.06-.05.1-.03,0,0,.02.01.02.02.44.52.94.91,1.48,1.17,1.84,2.2,3.21,4.7,4.09,7.49.01.04,0,.08-.04.09-.03.01-.06,0-.08-.03-.62-.77-2.09-1.66-2.98-1.55-.22.03-.39.23-.36.45.01.12.08.22.17.29l1,.71c.1.07.09.12-.04.13-1.51.15-2.48.28-2.89.4-2.41.69-4.45,1.08-6.12,1.16-6,.29-8.36,6.62-10.86,11.17-1.43,2.59-4.15,4.78-4.88,8.37-.46.01-.72.16-.88.62-.87,2.44-1.45,4.1-1.73,6.24-.02.12-.13.21-.25.19-.02,0-.04,0-.06-.02-.82-.4-1.55-1.95-1.92-2.74-.12-.25-.12-.52-.18-.8-.02-.08-.06-.14-.13-.18-.16-.1-.21-.23-.15-.39.03-.06.01-.12-.04-.17-.03-.03-.06-.06-.09-.1-.03-.04-.09-.05-.13-.02-.03.02-.04.06-.04.1l.06.25c.02.08,0,.09-.06.04l-.2-.18-1.19-6.68s0,0,0,0h-.07s0,0,0,.02l.07,1.23-.15,1.65c0,.11-.07.15-.17.12-.09-.02-.18-.02-.27,0-.09.03-.14.09-.15.18-.06.44-.23.86-.29,1.28-.55,3.71-3.81,6.56-7.61,6.43-.09,0-.16.03-.21.11-.07.1-.15.16-.26.18-6.32-5.09-9.55-13.16-10.67-21.11,0-.04-.03-.06-.07-.06h0s-.06.03-.06.07c.22,7.52,3.15,15.68,8.92,20.76,1.18,1.04,2.76,2.23,4.74,3.59l-1.43.04c-.11,0-.2.09-.2.2,0,.11-.03.21-.09.3-.06.1-.15.15-.26.14l-.64-.04c-.1,0-.18-.04-.26-.09-.64-.46-1.1-.72-1.35-.8-.45-.13-.76-.27-.92-.41-.03-.02-.05-.02-.08,0l-.08.08s-.02.04,0,.06c2.11,2.07,4.41,3.9,6.89,5.5.09.06.08.09-.03.08-.49-.03-1.35-.72-1.97-1.16-1.98-1.42-3.93-2.97-6.02-4.22-.37-.22-.41-.17-.13.16.41.47.88.87,1.39,1.21.07.04.12.1.16.16.29.46.66.83,1.12,1.14.08.05.17.08.27.08h.13c.09,0,.16.04.21.12.24.39.57.68.99.88.05.02.08.06.08.12,0,.03,0,.05,0,.07,0,.1-.05.16-.15.16-.66.04-1.25-.12-1.75-.49-.44-.32-.76-.52-.97-.62-2.03-.9-3.38-2.06-5.03-3.71-.26-.26-.54-.32-.87-.26-2.8-3.81-5.15-7.92-7.5-12.03-.01-.02-.03-.03-.06-.02h0s-.03.03-.02.06c2.08,4.54,4.31,8.91,7.18,13.03-.54.1-1.09.13-1.64.08-.2-.02-.3.11-.29.38-.96-1.34-1.77-2.85-2.42-4.55-.06-.16-.18-.29-.37-.39-.1-.06-.15-.03-.13.09.23,1.52,1.19,3.21,1.78,4.62-2.5.87-3.99,2-6.13,3.78-.53.44-1.19.54-1.98.29-.09-.03-.15,0-.19.08-.07.14-.17.19-.32.15-5.42-4.72-8.93-10.52-10.54-17.41,0-.02-.02-.03-.03-.02-.02,0-.03.02-.02.03.79,8.36,5.54,14.66,11.85,19.87-.04.22-.26.19-.65-.08-.12-.08-.15-.05-.1.08l.1.26c.03.09.02.17-.03.24-.13.18-.1.36.09.53.36.31.53.69.51,1.15,0,.1.03.17.11.23l3.23,2.48s.04.08.01.12c0,0,0,0-.01.01l-.07.06s-.02,0-.03,0c-1.06-.85-2.4-1.51-3.33-2.26-1.1-.89-2.13-1.84-3.09-2.87-.02-.02-.04-.02-.07,0h0s-.03.04-.01.07c.27.4.4.76.39,1.06,0,.17-.08.25-.23.24-.08,0-.13-.04-.17-.1l-.09-.13c-.13-.19-.19-.17-.19.06,0,.26.09.48.26.67.23.27.28.53.45.72,1.16,1.34,2.31,2.38,3.44,3.11,1.07.69,1.03.77-.13.24-.88-.4-1.86-1.48-2.91-2.09-.08-.04-.15-.05-.24-.02-.15.05-.26,0-.32-.15-.02-.05-.06-.09-.12-.1-.03,0-.07-.02-.11-.05-1.62-.99-3.07-2.04-4.35-3.16-.08-.07-.15-.07-.23,0l-.23.2c-5.98-8.04-9.28-18.58-7.22-28.48.17-.84.5-1.72.77-2.55.08-.26.06-.26-.06-.02-1.03,2.07-1.69,4.33-2,6.8-1.16,9.49,3.04,19.16,8.81,26.42,0,.2-.07.2-.24,0-.33-.38-.66-.76-.99-1.14-.13-.15-.26-.22-.4-.23-.07,0-.13-.02-.19-.04-.05-.02-.08-.05-.09-.09-.02-.08-.08-.13-.17-.13-.39-.03-.69-.19-.9-.51-.05-.07-.11-.13-.19-.16-.34-.16-.65-.35-.95-.57-.08-.06-.14-.08-.18-.03-.03.04-.06.12-.08.24l-1.42-3.19s-.03-.03-.05-.02h0s-.03.03-.02.05l.88,2.51c-1.66.66-3.25,2.22-4.45,3.5-2.9,3.12-5.2,6.64-6.9,10.56-1.16,2.69-1.73,5.84-.48,8.46.2.42.17.77.44,1.19.42.65.42,1.01,0,1.07-.85-1.86-1.69-3.67-2.5-5.45-.24-.54-.37-1.15-.57-1.73-.1-.3-.22-.73-.36-1.31-.19-.75-.48-1.45-.88-2.12-.05-.18-.13-.38-.22-.61-.26-.66-1.28-.53-1.38.1-.28,1.64-.23,3.25.16,4.84.19.78.62,1.74.88,2.64.03.08.07.15.14.21.15.12.17.31.08.59-.01.04-.06.06-.1.05-.02,0-.04-.02-.05-.04l-1.83-3.64c-.04-.09-.07-.18-.09-.27l-.08-.4c-.02-.08-.09-.1-.15-.03-.06.06-.09.16-.08.24.26,1.8.92,3.44,1.99,4.9.03.04.02.07-.02.09l-.06.04c-.07.05-.14.04-.2-.02l-1.06-1.08c-.16-.16-.38-.24-.61-.23-6.3.45-10.56,4.9-15.63,7.89-2.67,1.57-5.08,3.43-7.24,5.57-1.76,1.75-3.43,3.69-5.55,4.61-2.96,1.28-5.34,2.95-7.14,5.01-3.69,4.23-6.73,8.26-9.02,13.39-.05.11-.08.11-.08,0,0-.03,0-.06.02-.1.81-2.18,1.61-4.06,2.82-6.07.55-.91,1.12-1.81,1.7-2.7.18-.28.28-.47.3-.55.14-.55.01-.62-.39-.23-.85.84-1.72,1.66-2.42,2.65-1.52,2.13-2.78,4.21-3.69,6.66,0,.01-.01.02-.03.01l-.07-.02s-.05-.05-.04-.09c0,0,0,0,0,0,.71-1.97,1.23-3.23,1.56-3.75.49-.8.93-1.54,1.32-2.23.24-.41.15-.5-.27-.28-.36.19-.69.5-.99.93-.52.75-1.18,1.19-1.76,1.94-.05.06-.11.09-.2.09-.11,0-.14-.04-.09-.15l.91-1.8c1.81-2.4,3.02-3.94,3.63-4.6,1.76-1.91,3.6-3.72,5.54-5.44,2.34-2.07,5.31-4.16,8-6.2.2-.15.34-.31.43-.47.11-.19.04-.42-.14-.53-.09-.05-.2-.06-.3-.04-2.89.79-5.54,2.76-7.8,4.65-5.14,4.28-9.4,9.52-12.4,15.51-.06-.23-.21-.18-.47.16-.1.14-.21.25-.32.33-2.81,2.19-5.02,4.69-7.31,7.52-4.81,5.95-9.31,11.36-15.72,16.19-3.38,2.54-7.84,5.52-9.41,10.28-.16.47-.24.46-.24-.04,0-1.71-.46-6.41-1.92-7.62-.72-.6-1.33-.02-1.39.75-.27,3.64-.5,6.27-1.49,9.49-2.62,8.52-7.46,15.48-14.54,20.87-1.51,1.15-3.01,2.3-4.51,3.45-2.65,2.03-3.79,6.4-4.18,9.55-.02.13-.05.13-.09,0-.14-.41.09-.78.13-1.08.16-1.18.21-2.37.14-3.57,0-.09.03-.16.1-.2.06-.04.1-.09.1-.15.05-.57.04-1.23-.04-1.98,0-.09,0-.17.04-.25.33-.73.27-.97-.18-.71,1.22-7.07,3.1-13.75,8.76-18.45.66-.55,1.67-1.46,3.05-2.75.07-.07.1-.18.06-.27l-.02-.07s-.06-.06-.1-.05c0,0-.01,0-.02.01-2.2,1.65-4.22,2.91-6.28,5.13-.63.68-.89,1.5-1.52,2.21-.75.85-1.22,2.02-1.83,2.99-.24.38-.41.79-.51,1.23,0,.04-.02.08-.04.11-.79,1.77-1.05,3.26-1.45,5.64-.26,1.52-.31,3.49-.66,5.24l-.07-.8c-.01-.13-.06-.14-.13-.03-.22.31-.46.61-.71.89-1.43,1.62-2.55,4.76-2.6,6.71,0,.03-.02.04-.04.04h0s-.05-.01-.05-.04c-.23-1.88.33-2.97.74-4.57.12-.45.34-.75.57-1.14.02-.04.01-.08-.03-.1l-.07-.04c-.08-.05-.15-.03-.2.05-.79,1.19-1.83,2.37-2.51,3.41-.38.57-.76,1.17-1.14,1.79-.1.17-.31.24-.47.16-.08-.04-.13-.11-.15-.19-.05-.26-.32-.37-.79-.32.76-1.81,1.62-3.51,2.6-5.08,1.29-2.07,2.77-4.03,3.82-6.24.84-1.77,1.65-3.55,2.43-5.35,2.3-5.29,6.8-10.05,11.58-13.97.71-.58,1.55-1.46,1.96-2.06,3-4.41,4.74-9.31,5.99-14.46.91-3.76,1.64-8.83,2.48-12.7,1.93-8.85,4.78-17.41,8.56-25.66,7.43-16.23,18.06-29.98,31.88-41.25,9.58-7.82,19.92-14.86,31.02-21.14,7.56-4.28,14.3-7.77,21.62-11.36,7.82-3.83,15.33-8.13,22.91-12.4,4.62-2.6,9.36-4.93,14.23-7,7.99-3.39,17-4.87,25.6-2.98,6.3,1.38,12.87,3.87,17.89,8.03Zm4.03,5.65c.2.08.23.03.1-.13-.57-.73-1.19-1.34-1.99-1.89-1.47-1.01-3-1.92-4.59-2.75-.07-.04-.14-.06-.22-.08-.13-.03-.2-.04-.23-.03-.31.06-.33.19-.08.37.71.53,1.45.96,2.23,1.31.73.32,1.82,1.05,3.26,2.18.56.44.76.74,1.52,1.02Zm-41.26,19.25c-.18-7.1.78-14.51,7.45-18.45.53-.31,1.05-.61,1.59-.91.21-.12.22-.25.03-.39-.05-.03-.11-.05-.16-.03-8.89,1.96-10.78,12.37-9.01,19.78.07.3.1.3.1-.01Zm7.88-16.19c1.89-1.09,4.82-1.74,7.18-2.4.24-.07.25-.15.02-.26,0,0-.08,0-.22,0-5.93.35-11.57,2.37-13.04,8.9-.46,2.05-.62,4-.49,5.83.02.32.08.54.17.67.17.25.28.22.31-.08.56-5.02,1.31-9.9,6.07-12.65Zm-32.13,16.89c.48-5.87,2.25-11.16,5.51-16.03.5-.75,1.19-1.52,1.74-2.25.24-.32.19-.38-.16-.18-.43.24-.86.61-1.29,1.11-4.37,5.02-6.38,10.8-6.02,17.35.06,1.06.13,1.06.22,0Zm36.17-16.75c1.86-.61,3.77-.98,5.72-1.12.03,0,.05-.02.05-.05v-.08c0-.1-.05-.14-.14-.15-2.43-.09-4.78.3-7.05,1.18-.25.1-.39.25-.44.46-.02.09.04.18.13.2.02,0,.05,0,.07,0,.57-.12,1.12-.26,1.66-.44Zm-33.16.68c-.81,1.11-3.35,4.82-3.01,6.15.06.24.13.24.21,0,.74-2.17,1.92-4.01,3.01-6.05,0-.01,0-.03,0-.04l-.05-.07s-.09-.05-.13-.02c0,0-.01.01-.02.02Zm.13,7.65c.67-1.74,1.59-3.31,2.38-4.99.03-.07,0-.15-.07-.18-.01,0-.03,0-.04-.01h-.08s-.05,0-.06.02c-.67,1.2-1.31,2.42-1.92,3.66-.22.43-.41,1.02-.43,1.44-.01.44.06.46.21.06Zm36.82,4.26l.79,1.5c-1.03.56-2.15.92-3.37,1.09-.05,0-.08.04-.09.09-.02.1.04.16.18.19,3.87.69,7.79-3.26,9.09-6.72.2-.54.19-.99-.04-1.33l-1.3-.46c-1.24-.83-2.64-1.53-4.18-1.39-2.95.28-5.62,2.17-6.53,5.03-.39,1.24-.33,2.31,1.11,2.65,1.42.33,2.87.13,4.34-.63Zm-50.83-2.86c.35-.82.7-1.49,1.07-1.99.01-.02.01-.04,0-.05l-.06-.05s-.12-.03-.16.02c-2.04,2.43-3.21,5.8-3.81,8.87-.45,2.31-.68,3.83-.69,4.55-.03,2.24-.13,4.58.16,6.72.35,2.56.95,5.06,1.81,7.52.01.04.04.06.09.05l.07-.02s.04-.03.04-.06c-1.29-6.14-1.28-12.19-.48-18.42.3-2.36.96-4.74,1.97-7.14Zm-1.69,28.6c-1.97-4.89-2.94-10.25-3.07-15.6,0-.06-.03-.08-.09-.06l-.09.03s-.05.04-.06.07c-.35,4.4.37,8.65,1.77,12.83.26.78.66,1.72,1.19,2.82.04.08.13.11.21.08,0,0,.02,0,.02-.01l.09-.06s.04-.06.03-.09Zm-96.7,68.81c.89-2.8,2.41-7.37,4.55-13.69,2.29-6.79,4.9-13.45,8.43-19.47,2.78-4.75,5.94-8.92,9.78-13.1,4.22-4.59,8.21-8.14,13.9-12.6.41-.32.82-.76,1.26-1.12,9.33-7.54,19.93-13.97,31.22-18.1.04-.01.05-.04.04-.08h0s-.04-.06-.07-.05c-1.66.36-2.98.71-3.97,1.05-8.16,2.76-15.82,6.54-22.97,11.33-5.04,3.38-10.19,7.53-15.45,12.47-5.73,5.38-10.64,11.22-14.18,17.59-1.8,3.24-3.48,7.01-5.05,11.29-1.39,3.79-2.84,8.22-4.36,13.3-1.11,3.71-2.18,7.42-3.22,11.14,0,.03,0,.05.03.06h0s.05,0,.06-.03Zm33.37-41.67c10.28-5.77,22.28-12.71,33.02-19.78,3.56-2.34,6.92-4.92,10.1-7.74,1.86-1.65,6.44-6.1,6.43-8.51,0-.21-.17-.38-.39-.38-.05,0-.09,0-.14.03-.56.22-1.07.51-1.53.89-6.54,5.3-13.38,9.97-20.43,14.56-8.31,5.41-16.65,10.83-24.67,16.67-2.86,2.08-4.81,3.61-5.85,4.57-.63.59-1.01,1-1.14,1.24-.12.23-.08.4.13.52.08.04.15.05.23.01,1.71-.76,3.11-1.45,4.23-2.07Zm3.23-14.85c1.1-.87,2.25-1.89,3.07-3.04.12-.17.08-.25-.13-.22-.02,0-.08.05-.17.13-3.39,2.93-6.99,5.62-10.42,8.52-1.23,1.04-2.72,2.63-4.48,4.76-.04.05-.04.09,0,.14l.05.07s.04.03.07,0c3.55-3.99,7.87-7.05,12.03-10.36Zm-20.59,21.84c-2.04,2.89-3.6,6.05-4.93,9.32-.38.93-.7,1.89-.97,2.89-.01.04,0,.07.05.09l.11.03s.07,0,.09-.04c1.28-3.74,3.22-7.29,5.18-10.7.36-.63.58-1.13.65-1.5.07-.33,0-.35-.19-.08Z" fill="#ccd9e2" stroke-width="0"/><path d="m218.67,38.01c1.13.93,2.22,1.99,3.27,3.19-.55-.26-1.04-.65-1.48-1.17-.03-.03-.07-.04-.1-.01,0,0-.01.01-.02.02-.02.03-.03.06-.04.09-.03.08-.08.09-.15.05-.31-.19-.58-.45-.9-.6-.64-.29-1.28-.59-1.9-.91-.98-.51-1.98-.99-2.99-1.43-.74-.32-1.36-.69-1.87-1.1-.3-.24-.26-.33.12-.26.18.03.39.1.64.19,2.11.79,3.44,1.38,4,1.76.88.6,1.36.66,1.44.18Z" fill="#fff" stroke-width="0"/><path d="m222.7,43.66c-.75-.29-.96-.59-1.52-1.02-1.44-1.13-2.53-1.85-3.26-2.18-.78-.35-1.53-.78-2.23-1.31-.25-.19-.22-.31.08-.37.03,0,.1,0,.23.03.07.01.15.04.22.08,1.58.83,3.11,1.74,4.59,2.75.8.55,1.42,1.16,1.99,1.89.13.17.1.21-.1.13Z" fill="#fff" stroke-width="0"/><path d="m188.89,44.47c-6.68,3.94-7.64,11.35-7.45,18.45,0,.31-.02.31-.1.01-1.77-7.42.12-17.82,9.01-19.78.06-.01.12,0,.16.03.19.14.18.27-.03.39-.53.29-1.06.6-1.59.91Z" fill="#fff" stroke-width="0"/><path d="m189.32,46.72c-4.76,2.75-5.51,7.63-6.07,12.65-.03.3-.14.33-.31.08-.09-.13-.15-.35-.17-.67-.13-1.83.03-3.77.49-5.83,1.46-6.53,7.1-8.55,13.04-8.9.14,0,.22,0,.22,0,.22.11.21.2-.02.26-2.36.66-5.29,1.31-7.18,2.4Z" fill="#fff" stroke-width="0"/><path d="m162.71,47.59c-3.26,4.86-5.03,10.16-5.51,16.03-.09,1.06-.16,1.06-.22,0-.36-6.55,1.65-12.33,6.02-17.35.43-.5.86-.87,1.29-1.11.35-.2.4-.14.16.18-.55.73-1.24,1.5-1.74,2.25Z" fill="#fff" stroke-width="0"/><path d="m193.37,46.87c-.54.18-1.09.32-1.66.44-.09.02-.18-.04-.2-.13,0-.02,0-.05,0-.07.05-.21.19-.37.44-.46,2.27-.88,4.62-1.27,7.05-1.18.09,0,.14.05.14.15v.08s-.02.05-.05.05c-1.95.14-3.86.51-5.72,1.12Z" fill="#fff" stroke-width="0"/><path d="m157.19,53.69c-.34-1.33,2.2-5.04,3.01-6.15.03-.04.08-.05.12-.02,0,0,.01.01.02.02l.05.07s.01.03,0,.04c-1.08,2.04-2.26,3.88-3.01,6.05-.08.23-.15.23-.21,0Z" fill="#fff" stroke-width="0"/><path d="m206.26,74.91c.05.22.02.34-.08.36-.18.03-.35,0-.51-.07-.09-.04-.18-.04-.27,0-.29.14-.6.19-.91.14-.1-.02-.17-.07-.22-.16l-1.1-2.18s-.03-.02-.05-.02c0,0,0,0,0,0l-.07.07s-.04.06-.03.1c.06.24.02.45-.13.64-.06.07-.07.15-.03.24l.48,1.18c.04.1,0,.21-.11.25-.03.01-.07.02-.11,0l-2.18-.47c-1.98-2.39-1.27-5.76.42-8.15,1.3-1.83,2.11-2.98,2.43-3.46.98-1.42,2.08-3.32,3.29-5.7,1.86-3.64,4.25-6.32,8.59-6.45l-.05.1c-.04.08-.01.13.08.13,2.64.19,4.88,1.22,6.71,3.1.02.02.04.02.07,0l.05-.05s.03-.07,0-.1c-1.27-1.51-2.87-2.47-4.8-2.88-.04,0-.06-.03-.08-.06-.02-.03-.04-.06-.07-.09-.04-.03-.09-.04-.14-.03-.1.02-.17,0-.21-.07-.04-.06-.09-.1-.16-.12-.12-.03-.24-.02-.38.01,1.45-.26,2.88-.58,4.3-.97,2.29-.63,3.85-.36,5.65,1.16,1.7,1.43,3.37,2.89,5.02,4.38,1.64,1.48,4.25,3.16,5.69,4.76,3.33,3.69,4.16,8.88,1.97,13.38-.97,1.99-2.41,4.03-4.55,5.26-1.09.63-2.4.48-3.52.19-.24-.06-.39-.3-.35-.54.37-2.13.71-3.76-.53-5.71-.22-.35-.51-.64-.87-.86-.02-.01-.05,0-.06.01,0,0,0,0,0,0-.01.02-.02.04-.03.06,0,.01,0,.03.01.05,1.18,1.63,1.55,3.56,1.09,5.78-.13.62-.26,1.01-.39,1.17-4.72,5.63-12.55,4.25-17.49-.09-1.98-1.74-4.17-3.46-6.57-5.14-.1-.07-.15-.05-.14.08.02.24.13.49.32.75Zm27.13-12.49l-.37.81c-.08.16-.04.19.1.09.86-.64.75-1.66.29-2.51-.02-.03-.04-.04-.08-.04-.03,0-.05.01-.07.03-.02.02-.03.05-.03.1.05.41.11.82.19,1.24.02.1,0,.19-.04.28Zm-4.8-1.16l1.42,3.1s.04.03.06.02l.03-.02c.63-.29.85-1.14.5-1.9l-.19-.41c-.35-.76-1.15-1.15-1.78-.86h0s-.03.01-.03.01c-.02,0-.03.04-.02.06Zm9.58,5.01c.12-.04.17-.25.1-.48-.07-.23-.22-.38-.35-.34-.12.04-.17.25-.1.48.07.23.22.38.35.34h0Zm-20.05,1.13c.08.08.45-.17.83-.56,0,0,0,0,0,0,.38-.38.63-.76.55-.83-.08-.08-.45.17-.83.56,0,0,0,0,0,0-.38.38-.63.76-.55.83Zm-12.98,1.91c.29-.78.59-1.48.91-2.09.14-.27.09-.31-.15-.13-1.19.91-1.96,2.13-2.29,3.64-.24,1.07-.1,3.78,1.39,4.03.22.04.31-.05.26-.27-.37-1.85-.85-3.2-.11-5.18Zm34.66-1.5s.04-.1.05-.15c.01-.09-.03-.15-.12-.16-.3-.03-.38.15-.23.55.02.06.08.09.14.07.02,0,.04-.02.05-.04.02-.03.04-.08.06-.15.01-.04.03-.08.05-.12Zm-1.86.45s.07-.03.1-.07c.05-.09.07-.18.05-.28,0-.05-.06-.09-.12-.08-.03,0-.05.02-.06.04-.08.12-.19.17-.33.15-.09-.01-.16.03-.19.11l-.04.11c-.05.12,0,.17.12.14l.47-.12Zm-22.33.92c-.11-.06-.11-.12,0-.18.56-.32.99-.64,1.28-.97.16-.18.13-.22-.09-.12-.51.21-1.06.64-1.68,1.28-.05.05-.05.12,0,.17.02.02.06.04.09.03l.49-.04s.06-.03.06-.06c0-.02-.01-.05-.04-.06l-.12-.06Zm5.66-1.29l-1.49,1.82s-.01.03,0,.05c0,0,0,0,0,0h.01c.13.12.4.02.59-.22l.83-1.02c.19-.24.24-.52.11-.63h-.01s-.03-.02-.05,0c0,0,0,0,0,0Zm-3.38,1.64c-.45.22-1.13,1.03-1.34,1.37-.02.03-.02.06.01.09.02.02.05.03.08.02.03,0,.06-.02.1-.05.22-.18.47-.31.75-.38.1-.03.18-.11.2-.21.05-.26.15-.51.3-.72.1-.16.07-.19-.1-.11Zm22.04.79c.08,0,.13-.18.11-.39-.02-.21-.1-.37-.18-.36h0c-.08,0-.13.18-.11.39.02.21.1.37.18.36h0Zm-15.16-.43l.02,1.15s.02.05.05.05h.02c.18,0,.32-.21.32-.47v-.32c0-.26-.16-.46-.34-.46,0,0,0,0,0,0h-.02s-.05.02-.05.05Zm13.82,1.44c-.16-.42-.18-.86-.05-1.31.01-.04,0-.07-.05-.08l-.07-.02s-.04,0-.05.02c-.21.49-.19.97.05,1.45.02.03.06.05.09.03,0,0,.01,0,.02-.01l.06-.05s0-.01,0-.02Zm-1.67-.35c.15-.05.2-.31.1-.58-.09-.27-.29-.44-.45-.39s-.2.31-.1.58c.09.27.29.44.45.39Zm-22.02-.65c-.04-.08-.36.02-.72.21-.36.19-.61.41-.57.49.04.08.36-.02.72-.21.36-.19.61-.41.57-.49Zm7.65.75c-.09.25-.25.46-.47.64-.05.04-.06.12-.02.17.02.02.05.04.08.05.6.12.89-.33.83-.85-.07-.57-.2-.57-.41,0Zm4.98.65l-.19-.4c-.04-.08-.14-.11-.22-.07-.03.02-.06.04-.07.08-.06.12-.08.25-.05.39.01.09.08.15.17.16l.24.03c.07,0,.14-.04.14-.11,0-.03,0-.05-.01-.08Zm11.94-.45c-.1.01-.23,0-.29.02-.07.02-.12.09-.1.16.01.05.05.09.1.1l.35.08c.08.02.13-.01.13-.1v-.13c.01-.08-.03-.13-.11-.14-.03,0-.05,0-.08,0Zm-24.44.32l-1.13.97s0,.01,0,.02h0c.11.13.44.03.73-.22l.08-.06c.3-.25.45-.56.34-.69,0,0,0,0,0,0h0s-.01-.02-.02-.01h0Zm4.29,1.36c.1.08.38-.09.62-.4.24-.3.36-.61.25-.7-.1-.08-.38.09-.62.4-.24.3-.36.61-.25.7Zm-6.13-.44c-.06-.13-.36-.11-.67.04-.31.15-.51.37-.44.5h0c.06.13.36.11.67-.04.31-.15.51-.37.44-.5h0Zm8.32.09s-.05-.04-.09-.05c-.09-.01-.17.04-.24.16-.03.05-.01.1.03.13,0,0,0,0,.01,0,.09.04.18.05.27.03.04,0,.07-.03.08-.07.01-.03.01-.05,0-.07-.02-.04-.04-.08-.08-.13Zm13.65.32s.02-.08.03-.11c.02-.06,0-.13-.07-.15-.04-.02-.09,0-.12.03-.16.16-.28.35-.34.58-.02.09.03.18.11.2.03,0,.07,0,.1,0,.12-.04.19-.12.22-.25.05-.18.07-.28.07-.29Zm-10.95,1.32c.12.06.37-.21.58-.61.2-.39.27-.76.16-.82-.12-.06-.37.21-.58.61-.2.39-.27.76-.16.82Zm12.33-.28l.1-.78c.01-.1-.03-.15-.13-.14-.12.01-.2.09-.24.22-.06.2-.09.41-.08.63,0,.06.03.1.09.12l.1.05c.1.04.15.01.17-.1Zm-18.91-.89l-.74.65s-.02.05,0,.07h0s0,0,0,0c.14.16.42.14.63-.05l.05-.04c.21-.19.27-.46.13-.62,0,0,0,0,0,0h0s-.05-.03-.07-.01Zm20.82.89c.1-.03.13-.1.1-.2-.06-.2-.16-.38-.31-.53-.05-.05-.12-.05-.17,0-.02.02-.03.04-.04.06-.05.22-.06.44-.03.66.02.12.08.16.19.12l.25-.09Zm-16.52.3c.1-.09.19-.19.25-.31.03-.06,0-.14-.05-.17-.02-.01-.05-.02-.07-.01-.49.04-.68.58-1.02.92-.09.09-.08.12.05.09l.65-.19c.07-.02.11-.06.13-.13,0-.02.01-.05,0-.07,0-.05.01-.09.05-.12Zm4.54,1.17c.12.06.39-.24.61-.68s.3-.83.18-.89c-.12-.06-.39.24-.61.68,0,0,0,0,0,0-.22.43-.3.83-.18.89Zm-11.45-1.41l-1.04.75s-.03.05-.01.08h0l.02.02c.12.17.46.14.75-.07l.09-.06c.29-.21.42-.52.3-.69l-.02-.02s-.05-.03-.08-.01c0,0,0,0,0,0Zm17.23,1.03c.12-.01.2-.22.18-.47h0c-.02-.25-.14-.44-.27-.43-.12.01-.2.22-.18.47h0c.02.25.14.44.27.43Zm-19.78-.42c-.03-.1-.3-.1-.6,0-.29.1-.51.27-.47.37h0c.03.1.3.1.6,0,.29-.1.51-.27.47-.37h0Zm11.04.65l.02.52c0,.06.03.09.1.08l.12-.02s.07-.04.07-.09c-.01-.3-.08-.6-.2-.88-.04-.09-.1-.12-.2-.08-.25.1-.51.12-.77.06-.04,0-.08.02-.09.06,0,.04.01.07.05.08.24.07.49.11.75.12.08,0,.15.07.15.15Zm5.15,1.25c.13.02.29-.28.36-.67h0c.06-.39,0-.72-.13-.75-.13-.02-.29.28-.36.67t0,0c-.06.39,0,.72.13.75Zm-8.31-1.31c-.06-.1-.34-.02-.62.16,0,0,0,0,0,0-.28.19-.45.41-.39.51.06.1.34.02.62-.16,0,0,0,0,0,0,.28-.19.45-.41.39-.51Zm3.43,1.46c.1.07.34-.1.54-.37.2-.28.29-.56.2-.63t0,0c-.1-.07-.34.1-.54.37-.2.28-.29.56-.2.63h0Zm11.45-.69c-.01-.15-.09-.25-.22-.28-.08-.02-.17.03-.19.11,0,.02,0,.03,0,.05.03.31.13.58.31.82.03.04.09.04.12.01.02-.02.03-.05.03-.07-.01-.16-.03-.37-.06-.64Zm-17.99.27l-.45.74s0,.02,0,.02l.08.04s.06.01.09-.01l.96-1.07c.09-.1.07-.13-.06-.1-.28.07-.57.1-.86.07-.44-.04-.46.06-.05.28.02.01.09-.01.2-.07.15-.08.18-.05.09.1Zm-5.32.69l1.93-.65s.05-.05.04-.09c0,0,0,0,0-.01l-.04-.07c-.04-.06-.11-.1-.18-.09-.68.1-1.28.39-1.77.87-.05.05-.04.06.02.04Zm24.5-.06c.13.02.26-.16.29-.4.03-.24-.04-.45-.17-.47-.13-.02-.26.16-.29.4s.04.45.17.47Zm-14.97.65c.08.06.38-.19.66-.57s.44-.73.36-.8c-.08-.06-.38.19-.66.57-.28.38-.44.73-.36.8Zm12.16-1.23s-.07.02-.06.06c.03.36-.06.69-.27.99-.06.08-.04.19.04.25.04.03.09.04.13.03l.15-.02c.08-.01.13-.06.13-.15v-1.12s0-.05-.04-.05h-.08Zm-6.94.79l-.79.79c-.07.07-.11.17-.1.28v.15c.01.05.06.09.11.09.02,0,.04-.01.06-.02l.73-.69c.06-.06.09-.13.09-.22v-.33c-.02-.07-.04-.08-.1-.03Zm-6.33.42c-.05-.07-.34.05-.66.26-.32.21-.54.44-.49.5.05.07.34-.05.66-.26.32-.21.54-.44.49-.5h0Zm-5.52.11c-.24.34-.56.53-.98.57-.02,0-.04.02-.04.04,0,0,0,0,0,0,0,.02,0,.05,0,.07,0,.01,0,.02.02.03.43.11.83.04,1.18-.18.07-.05.1-.14.06-.22l-.16-.3c-.03-.06-.06-.06-.1,0Zm13.47,1.95c.09.06.36-.21.61-.59,0,0,0,0,0,0,.25-.38.37-.74.28-.8h0c-.09-.06-.36.21-.61.59,0,0,0,0,0,0-.25.38-.37.74-.28.8h0Zm-4.09-1.15c.06-.01.11-.05.13-.1.04-.08.02-.11-.07-.1-.17.03-.31.11-.41.25-.02.03-.02.07,0,.09.02.02.06.02.09,0l.15-.1s.07-.04.11-.04Zm-1.78.08c-.06-.06-.31.07-.55.3,0,0,0,0,0,0-.24.23-.38.47-.32.53.06.06.31-.07.55-.3,0,0,0,0,0,0,.24-.23.38-.47.32-.53Zm-5.92,1.35l.97-.73c.05-.04.07-.11.04-.17l-.06-.11s-.07-.06-.12-.04c0,0-.02,0-.02.02l-.92.91s-.03.09,0,.12c.03.03.07.03.1,0Zm7.98-.49l-.7.8c-.09.1-.1.21-.03.33l.09.17c.04.07.13.09.19.05.02-.01.04-.04.05-.06l.54-1.19s0-.1-.05-.12c-.03-.01-.07,0-.1.02Zm-4.45.3c-.35.56-.65.63-1.14.99-.3.23-.26.31.11.26.6-.09.99-.47,1.17-1.15,0-.01,0-.03-.01-.04l-.06-.07s-.05-.03-.07,0Zm-2.98.48c-.2.05-.41.06-.62.04-.16-.01-.17.02-.03.1.27.16.5.15.71-.02.15-.13.13-.17-.06-.12Zm8.98.88c.11.06.31-.08.45-.31h0c.13-.24.15-.48.04-.55-.11-.06-.31.08-.45.31h0c-.13.24-.15.48-.04.55Zm-3.85-.16c-.07-.08-.33.04-.58.27h0c-.25.23-.39.47-.32.55.07.08.33-.04.58-.27,0,0,0,0,0,0,.25-.23.39-.47.32-.55Z" fill="#ccd9e2" stroke-width="0"/><path d="m162.72,50.2c-.79,1.68-1.71,3.25-2.38,4.99-.15.4-.22.38-.21-.06.01-.42.21-1.01.43-1.44.62-1.24,1.26-2.46,1.92-3.66.01-.02.03-.03.06-.03h.08c.07.02.13.09.12.16,0,.01,0,.03-.01.04Z" fill="#fff" stroke-width="0"/><path d="m216.7,51.17c.14-.03.26-.04.38-.01.07.01.13.05.16.12.04.07.11.1.21.07.05-.01.1,0,.14.03.03.03.05.06.07.09.02.03.05.05.08.06,1.93.42,3.53,1.38,4.8,2.88.03.03.03.07,0,.1l-.05.05s-.05.02-.07,0c-1.83-1.87-4.07-2.91-6.71-3.1-.09,0-.12-.05-.08-.13l.05-.1,1.02-.08Z" fill="#fff" stroke-width="0"/><path d="m202.4,53.79l.08.15c.1.2.05.24-.14.13-2.71-1.49-5.31-1.33-7.81.47-.95.68-4.22,4.26-1.7,5.11,1.93.65,4.23-.18,5.88-1.33.05-.04.11-.05.16-.04.08.02.09.05.02.09l-1.74,1.08c-1.47.75-2.92.96-4.34.63-1.45-.34-1.51-1.41-1.11-2.65.9-2.86,3.58-4.76,6.53-5.03,1.54-.14,2.94.56,4.18,1.39Z" fill="#040b0d" stroke-width="0"/><path d="m202.4,53.79l1.3.46c-.83,3.06-3.05,5.17-5.76,6.7l-.79-1.5,1.74-1.08c.07-.04.06-.07-.02-.09-.05-.01-.11,0-.16.04-1.66,1.15-3.96,1.98-5.88,1.33-2.52-.85.75-4.43,1.7-5.11,2.5-1.8,5.11-1.96,7.81-.47.19.11.24.06.14-.13l-.08-.15Zm-9.32,4.52c.42,2.44,5.5.06,6.49-.87.6-.56,1.09-1.23,1.47-1.99.09-.18.04-.4-.13-.52-1.67-1.17-4.48-.41-6.03.58-.86.55-1.99,1.7-1.8,2.79Z" fill="#afb9c4" stroke-width="0"/><path d="m203.71,54.25c.23.35.25.79.04,1.33-1.3,3.46-5.22,7.41-9.09,6.72-.14-.03-.2-.09-.18-.19,0-.04.04-.08.09-.09,1.22-.16,2.34-.53,3.37-1.09,2.72-1.53,4.93-3.64,5.76-6.7Z" fill="#040b0d" stroke-width="0"/><path d="m199.57,57.44c-.99.93-6.07,3.31-6.49.87-.19-1.1.94-2.24,1.8-2.79,1.55-.99,4.36-1.75,6.03-.58.16.12.22.34.13.52-.38.76-.87,1.43-1.47,1.99Zm-1.86-1.28l.14.39c.02.07.1.1.16.08,0,0,0,0,0,0h.03c.54-.21.94-.5.88-.66,0,0,0,0,0,0l-.02-.05c-.06-.16-.54-.13-1.09.07,0,0,0,0,0,0h-.02c-.06.03-.1.11-.08.17Z" fill="#040b0d" stroke-width="0"/><path d="m146.32,56.59c-1.01,2.4-1.66,4.78-1.97,7.14-.8,6.23-.81,12.27.48,18.42,0,.03,0,.05-.04.06l-.07.02s-.07,0-.09-.05c-.86-2.45-1.46-4.96-1.81-7.52-.29-2.13-.19-4.47-.16-6.72.01-.72.24-2.24.69-4.55.6-3.07,1.76-6.45,3.81-8.87.04-.05.11-.05.16-.02l.06.05s.02.03,0,.05c-.37.51-.73,1.17-1.07,1.99Z" fill="#fff" stroke-width="0"/><path d="m197.71,56.16c-.02-.07.01-.14.08-.16h.02c.54-.21,1.03-.24,1.09-.08,0,0,0,0,0,0l.02.05c.06.16-.34.45-.88.64,0,0,0,0,0,0h-.03c-.07.03-.14,0-.16-.06,0,0,0,0,0,0l-.14-.39Z" fill="#ccd9e2" stroke-width="0"/><path d="m155.68,87.71c2.4,3.43,5.63,6.61,8.67,9.14,2.99,2.49,7.03,5.34,10.41,8.74,2.01,2.31,3.4,5.14,3.29,8.2,0,.03-.02.05-.05.05h0s-.05-.02-.05-.05c-.24-2.53-1.21-4.72-2.93-6.57-1.95-2.1-3.94-3.92-5.97-5.46-4.98-3.77-9.04-7.12-13.06-11.89-5.77-7.26-9.97-16.94-8.81-26.42.3-2.46.97-4.73,2-6.8.12-.24.14-.23.06.02-.26.83-.59,1.72-.77,2.55-2.06,9.9,1.24,20.45,7.22,28.48Z" fill="#040b0d" stroke-width="0"/><path d="m233.43,62.14c-.08-.41-.14-.82-.19-1.24,0-.05,0-.09.03-.1.02-.01.04-.02.07-.03.04,0,.06,0,.08.04.46.85.57,1.87-.29,2.51-.15.11-.18.08-.1-.09l.37-.81c.04-.09.05-.18.04-.28Z" fill="#fff" stroke-width="0"/><path d="m228.59,61.26s0-.05.02-.06h.03c.63-.3,1.42.08,1.78.84,0,0,0,0,0,0l.19.41c.35.76.13,1.61-.5,1.9l-.03.02s-.05,0-.06-.02l-1.42-3.1Z" fill="#040b0d" stroke-width="0"/><ellipse cx="238.05" cy="65.86" rx=".24" ry=".43" transform="translate(-8.89 71.18) rotate(-16.7)" fill="#040b0d" stroke-width="0"/><ellipse cx="218.81" cy="66.71" rx=".98" ry=".19" transform="translate(17.48 175.31) rotate(-45.3)" fill="#040b0d" stroke-width="0"/><path d="m205.14,69.31c-.74,1.98-.27,3.33.11,5.18.05.22-.04.31-.26.27-1.49-.26-1.63-2.96-1.39-4.03.34-1.51,1.1-2.72,2.29-3.64.24-.18.29-.14.15.13-.31.61-.61,1.31-.91,2.09Z" fill="#040b0d" stroke-width="0"/><path d="m191.95,67.28c.12,2.51.15,4.97.73,7.42,1.57,6.57,8.82,9.16,14.64,10.48,3.2.72,5.97.76,9.02-.05.43-.11.83-.29,1.21-.52,0,0,0,0,0,0l.04.06s.02.07-.02.1c-1.38,1.1-2.22,2.59-3.53,3.74-1.51-.15-2.97-.43-4.38-.86-1.6-.49-2.67-.67-4.16-.63-2.82.08-5.45.76-8.22,1.11-2.13-1.41-3.98-3.04-5.96-4.63-2.67-2.14-5.67-4.16-8.49-6.27.11-.02.2-.08.26-.18.05-.07.12-.11.21-.11,3.8.13,7.06-2.71,7.61-6.43.06-.42.24-.84.29-1.28.01-.09.06-.15.15-.18.09-.03.18-.03.27,0,.1.03.16-.01.17-.12l.15-1.65Z" fill="#afb9c4" stroke-width="0"/><path d="m239.75,67.93c-.02.06-.04.11-.06.15-.03.05-.1.06-.15.03-.02-.01-.03-.03-.04-.05-.15-.4-.07-.58.23-.55.09.01.13.06.12.16,0,.05-.02.1-.05.15-.02.05-.04.09-.05.12Z" fill="#040b0d" stroke-width="0"/><path d="m237.94,68.26l-.47.12c-.13.03-.17-.01-.12-.14l.04-.11c.03-.09.1-.12.19-.11.14.02.25-.03.33-.15.03-.05.1-.06.14-.03.02.01.04.04.04.06.02.1,0,.19-.05.28-.02.04-.06.06-.1.07Z" fill="#040b0d" stroke-width="0"/><path d="m215.61,69.18l.12.06s.05.05.03.08c-.01.02-.03.04-.06.04l-.49.04c-.07,0-.12-.04-.13-.11,0-.03,0-.07.03-.09.61-.64,1.17-1.07,1.68-1.28.22-.1.25-.05.09.12-.29.32-.72.64-1.28.97-.11.06-.11.12,0,.18Z" fill="#040b0d" stroke-width="0"/><path d="m221.27,67.89s.03-.02.05,0c0,0,0,0,0,0h.01c.13.12.08.4-.11.64l-.83,1.02c-.19.24-.46.34-.59.23h-.01s-.01-.04,0-.05h0s1.49-1.82,1.49-1.82Z" fill="#040b0d" stroke-width="0"/><path d="m141.57,69.59c.13,5.35,1.1,10.71,3.07,15.6.01.03,0,.07-.03.09l-.09.06c-.07.05-.17.03-.22-.04,0,0,0-.01-.01-.02-.53-1.1-.92-2.04-1.19-2.82-1.4-4.17-2.11-8.43-1.77-12.83,0-.04.02-.06.06-.07l.09-.03c.05-.02.08,0,.09.06Z" fill="#fff" stroke-width="0"/><path d="m216.55,70.9c.22-.34.89-1.15,1.34-1.37.17-.08.2-.05.1.11-.15.22-.25.46-.3.72-.02.1-.1.19-.2.21-.29.07-.54.2-.75.38-.04.03-.07.05-.1.05-.03,0-.06,0-.08-.02-.03-.03-.03-.06-.01-.09Z" fill="#040b0d" stroke-width="0"/><ellipse cx="239.9" cy="69.94" rx=".14" ry=".38" transform="translate(-5.6 23.32) rotate(-5.5)" fill="#040b0d" stroke-width="0"/><path d="m224.78,69.89s.02-.05.05-.05h.02c.18,0,.33.2.33.46h0s0,.32,0,.32c0,.26-.14.47-.32.47h-.02s-.05-.02-.05-.05l-.02-1.15Z" fill="#040b0d" stroke-width="0"/><path d="m198.95,69.89c-.27,1.4-.14,4.95,1.81,5.22.26.03.32,0,.18-.09l2.18.47c.1.02.2-.05.22-.15,0-.04,0-.07,0-.11l-.48-1.18c-.04-.09-.03-.17.03-.24.15-.19.19-.4.13-.64,0-.04,0-.07.03-.1l.07-.07s.04-.01.05,0c0,0,0,0,0,0l1.1,2.18c.05.09.12.15.22.16.31.05.62,0,.91-.14.09-.04.18-.04.27,0,.16.07.33.1.51.07.1-.02.13-.14.08-.36,1.05,1.23,2.56,2.01,3.76,3.12,1.73,1.61,3.38,3.19,5.46,4.37.11.06.11.1-.02.1-.28.01-.57-.12-.83-.1-2.58.15-5.45.24-7.8-.55-2.02-.69-3.71-1.82-5.06-3.39-.35-.41-.47-.35-.36.18.12.56.41,1.06.86,1.51,2.26,2.25,4.97,3.33,8.11,3.24,1.68-.05,3.56-.25,5.63-.61.25-.04.56.05.93.29-1.19.22-2.38.43-3.56.62-1.6.27-3.09.23-4.68.18-.05,0-.07.02-.07.07v.09c0,.07.03.11.1.12,1.65.24,3.27.2,4.87-.12.56-.11,1.21-.2,1.95-.26.7-.06,1.38-.19,2.04-.4.18-.1.34-.1.46,0,.08.07.08.13-.02.18-2.86,1.54-7.75,1.34-10.73.62-6.4-1.55-12.98-3.98-14.13-11.44l.2.18c.06.05.08.04.06-.04l-.06-.25s.02-.1.07-.11c.04,0,.07,0,.1.03.03.04.06.08.09.1.05.05.06.11.04.17-.06.16-.01.29.15.39.07.04.11.1.13.18.06.28.07.55.18.8.37.79,1.1,2.34,1.92,2.74.11.05.25,0,.3-.11,0-.02.02-.04.02-.06.29-2.14.86-3.79,1.73-6.24.16-.45.42-.61.88-.62Z" fill="#afb9c4" stroke-width="0"/><path d="m238.6,71.33s0,.01,0,.02l-.06.05s-.07.03-.1,0c0,0,0-.01-.01-.02-.25-.47-.26-.96-.05-1.45.01-.02.03-.03.05-.02l.07.02s.06.04.05.08c-.13.46-.11.89.05,1.31Z" fill="#040b0d" stroke-width="0"/><ellipse cx="236.76" cy="70.5" rx=".29" ry=".51" transform="translate(-9.95 83.07) rotate(-19.5)" fill="#040b0d" stroke-width="0"/><ellipse cx="214.27" cy="70.69" rx=".73" ry=".16" transform="translate(-7.69 111.19) rotate(-28.6)" fill="#040b0d" stroke-width="0"/><path d="m222.56,71.08c.2-.56.34-.56.41,0,.06.52-.23.96-.83.85-.07-.01-.11-.08-.1-.14,0-.03.02-.06.05-.08.23-.18.39-.39.47-.64Z" fill="#040b0d" stroke-width="0"/><path d="m227.54,71.73c.03.06,0,.14-.06.17-.02.01-.05.02-.08.01l-.24-.03c-.09-.01-.15-.08-.17-.16-.02-.13,0-.26.05-.39.04-.08.13-.12.22-.08.03.02.06.04.08.07l.19.4Z" fill="#040b0d" stroke-width="0"/><path d="m239.48,71.28s.05,0,.08,0c.08,0,.12.05.12.14v.13c-.01.08-.05.12-.14.1l-.35-.08c-.07-.02-.11-.09-.1-.16.01-.05.05-.08.1-.1.06-.01.19,0,.29-.02Z" fill="#040b0d" stroke-width="0"/><path d="m215.04,71.6s.01,0,.02,0h0c.11.14-.04.45-.34.7,0,0,0,0,0,0l-.08.06c-.29.25-.62.36-.73.23h0s0-.02,0-.03l1.13-.97Z" fill="#040b0d" stroke-width="0"/><ellipse cx="219.76" cy="72.41" rx=".7" ry=".24" transform="translate(25.63 198.3) rotate(-51.2)" fill="#040b0d" stroke-width="0"/><ellipse cx="212.63" cy="72.78" rx=".62" ry=".26" transform="translate(-10.48 99.8) rotate(-25.8)" fill="#040b0d" stroke-width="0"/><path d="m221.58,72.74s0,.05,0,.07c-.01.04-.04.06-.08.07-.1.02-.19,0-.27-.03-.05-.02-.07-.08-.05-.13,0,0,0,0,0-.01.07-.12.15-.17.24-.16.04,0,.07.02.09.05.03.05.06.1.08.13Z" fill="#afb9c4" stroke-width="0"/><path d="m235.08,73.21c-.03.13-.11.21-.22.25-.09.03-.18-.02-.21-.1-.01-.03-.01-.07,0-.1.06-.22.18-.42.34-.58.05-.04.12-.04.17,0,.03.03.04.08.03.12-.01.03-.02.07-.03.11,0,0-.02.1-.07.29Z" fill="#040b0d" stroke-width="0"/><ellipse cx="224.57" cy="73.53" rx=".8" ry=".24" transform="translate(56.23 239.36) rotate(-62.7)" fill="#040b0d" stroke-width="0"/><path d="m236.63,73.19l-.1.78c-.01.11-.07.14-.17.1l-.1-.05c-.05-.02-.08-.06-.09-.12-.01-.21.01-.42.08-.63.04-.13.12-.21.24-.22.1,0,.15.04.13.14Z" fill="#040b0d" stroke-width="0"/><path d="m217.63,73.07s.05-.02.07,0h0c.14.17.08.45-.13.63,0,0,0,0,0,0l-.05.04c-.21.18-.5.2-.63.05h0s-.01-.06,0-.07c0,0,0,0,0,0l.74-.65Z" fill="#040b0d" stroke-width="0"/><path d="m238.45,73.97l-.25.09c-.11.04-.18,0-.19-.12-.03-.22-.03-.44.03-.66.02-.06.08-.11.15-.09.02,0,.04.02.06.04.14.15.25.33.31.53.03.1,0,.17-.1.2Z" fill="#040b0d" stroke-width="0"/><path d="m221.88,74.39s0,.05,0,.07c-.02.07-.07.11-.13.13l-.65.19c-.12.04-.14,0-.05-.09.33-.34.52-.89,1.02-.92.07,0,.13.04.13.11,0,.02,0,.05-.01.07-.06.12-.15.22-.25.31-.03.03-.05.08-.05.12Z" fill="#040b0d" stroke-width="0"/><ellipse cx="226.86" cy="74.66" rx=".88" ry=".24" transform="translate(57.93 243.49) rotate(-63.2)" fill="#040b0d" stroke-width="0"/><path d="m215.02,74.04s.06-.01.08.01c0,0,0,0,0,0l.02.02c.12.17-.01.48-.3.69l-.09.06c-.29.21-.62.24-.75.07l-.02-.02s-.01-.06.01-.08h0l1.04-.75Z" fill="#040b0d" stroke-width="0"/><ellipse cx="232.21" cy="74.61" rx=".23" ry=".46" transform="translate(-5.99 22.18) rotate(-5.4)" fill="#040b0d" stroke-width="0"/><ellipse cx="211.94" cy="74.83" rx=".57" ry=".19" transform="translate(-12.82 74.26) rotate(-19.3)" fill="#040b0d" stroke-width="0"/><path d="m223.36,75.15c-.26,0-.51-.04-.75-.12-.04-.01-.06-.06-.05-.09.01-.03.05-.06.08-.05.27.06.53.04.77-.06.09-.04.16,0,.2.08.12.28.19.58.2.88,0,.04-.03.08-.07.09l-.12.02c-.06.01-.1-.02-.1-.08l-.02-.52c0-.08-.07-.15-.15-.15Z" fill="#afb9c4" stroke-width="0"/><ellipse cx="228.78" cy="75.84" rx=".72" ry=".24" transform="translate(116.96 289.36) rotate(-80.7)" fill="#040b0d" stroke-width="0"/><ellipse cx="219.84" cy="75.58" rx=".61" ry=".21" transform="translate(-5.09 134.29) rotate(-33.6)" fill="#040b0d" stroke-width="0"/><path d="m172.34,80.68c2.86,3.86,6.37,6.86,10.26,9.14.64.38.61.45-.1.23-4.74-1.51-8.76-5.36-11.29-9.6-.59-1.41-1.56-3.1-1.78-4.62-.02-.12.02-.15.13-.09.19.11.31.24.37.39.66,1.69,1.46,3.21,2.42,4.55Z" fill="#fff" stroke-width="0"/><ellipse cx="224.15" cy="76.2" rx=".62" ry=".22" transform="translate(29.57 211.06) rotate(-53.5)" fill="#040b0d" stroke-width="0"/><path d="m235.23,76.01c.03.27.05.48.06.64,0,.05-.03.09-.08.09-.03,0-.06-.01-.07-.03-.18-.24-.29-.52-.31-.82,0-.08.06-.16.14-.16.02,0,.03,0,.05,0,.13.04.2.13.22.28Z" fill="#040b0d" stroke-width="0"/><path d="m47.93,154.01s-.03.04-.06.03h0s-.04-.03-.03-.06c1.04-3.72,2.11-7.44,3.22-11.14,1.52-5.07,2.97-9.51,4.36-13.3,1.57-4.28,3.25-8.05,5.05-11.29,3.54-6.38,8.46-12.21,14.18-17.59,5.26-4.94,10.4-9.1,15.45-12.47,7.15-4.79,14.81-8.57,22.97-11.33.99-.34,2.31-.69,3.97-1.05.04,0,.06,0,.07.04h0s0,.06-.04.08c-11.29,4.13-21.89,10.55-31.22,18.1-.44.35-.85.79-1.26,1.12-5.69,4.47-9.68,8.02-13.9,12.6-3.85,4.18-7,8.35-9.78,13.1-3.53,6.02-6.13,12.68-8.43,19.47-2.14,6.33-3.65,10.89-4.55,13.69Z" fill="#fff" stroke-width="0"/><path d="m217.14,76.19c-.12.06-.18.09-.2.07-.41-.23-.39-.32.05-.28.29.02.58,0,.86-.07.13-.03.15,0,.06.1l-.96,1.07s-.05.03-.09.01l-.08-.04s-.01-.01,0-.02l.45-.74c.09-.15.06-.18-.09-.1Z" fill="#040b0d" stroke-width="0"/><path d="m114.32,92.56c-10.74,7.07-22.74,14.01-33.02,19.78-1.11.62-2.52,1.31-4.23,2.07-.08.03-.16.03-.23-.01-.21-.12-.26-.29-.13-.52.13-.24.51-.65,1.14-1.24,1.04-.96,2.99-2.49,5.85-4.57,8.02-5.84,16.35-11.26,24.67-16.67,7.05-4.59,13.89-9.25,20.43-14.56.46-.37.97-.67,1.53-.89.2-.08.42.02.5.22.02.04.03.09.03.14.02,2.41-4.57,6.86-6.43,8.51-3.18,2.82-6.55,5.4-10.1,7.74Z" fill="#fff" stroke-width="0"/><path d="m213.85,76.33l-1.93.65c-.06.02-.07.01-.02-.04.5-.48,1.09-.77,1.77-.87.07-.01.14.02.18.09l.04.07s0,.07-.02.09c0,0,0,0-.01,0Z" fill="#040b0d" stroke-width="0"/><ellipse cx="236.47" cy="76.48" rx=".44" ry=".24" transform="translate(127.82 300.01) rotate(-82)" fill="#040b0d" stroke-width="0"/><ellipse cx="221.95" cy="76.88" rx=".85" ry=".19" transform="translate(27.44 208.55) rotate(-53.2)" fill="#040b0d" stroke-width="0"/><path d="m233.72,76.38v1.12c-.01.09-.06.13-.14.15l-.15.02c-.1.01-.19-.05-.21-.15,0-.05,0-.09.03-.13.22-.3.31-.63.27-.99,0-.05.01-.07.06-.06h.08s.05.02.05.05Z" fill="#040b0d" stroke-width="0"/><path d="m226.66,77.12c.05-.05.08-.04.08.03v.33c.02.09-.01.16-.08.22l-.73.69s-.1.03-.14,0c-.01-.02-.02-.04-.02-.06v-.15c-.02-.1.02-.2.09-.28l.79-.79Z" fill="#040b0d" stroke-width="0"/><rect x="239.23" y="77.25" width=".21" height="2.61" rx=".1" ry=".1" transform="translate(-12.43 70.33) rotate(-16.3)" fill="#040b0d" stroke-width="0"/><ellipse cx="219.76" cy="77.93" rx=".69" ry=".15" transform="translate(-6.41 134.63) rotate(-33.6)" fill="#040b0d" stroke-width="0"/><path d="m214.82,77.65c.04-.05.07-.05.1,0l.16.3c.04.08.01.17-.06.22-.35.23-.75.29-1.18.18-.01,0-.02-.01-.02-.03,0-.03,0-.05,0-.07,0-.02.01-.04.03-.04,0,0,0,0,0,0,.42-.04.74-.23.98-.57Z" fill="#040b0d" stroke-width="0"/><ellipse cx="228.73" cy="78.91" rx=".83" ry=".19" transform="translate(39.29 229.42) rotate(-57.5)" fill="#040b0d" stroke-width="0"/><path d="m224.09,78.49l-.15.1s-.07.02-.09,0c-.02-.02-.02-.06,0-.09.1-.14.24-.22.41-.25.08-.01.11.02.07.1-.03.05-.07.08-.13.1-.04,0-.07.02-.11.04Z" fill="#040b0d" stroke-width="0"/><ellipse cx="221.98" cy="78.94" rx=".6" ry=".16" transform="translate(7.13 175.61) rotate(-43.8)" fill="#040b0d" stroke-width="0"/><path d="m216.49,79.88s-.09.02-.11-.02c-.02-.03-.02-.07,0-.1l.92-.91s.09-.03.12,0c0,0,.01.01.02.02l.06.11c.03.06.01.13-.04.17l-.97.73Z" fill="#040b0d" stroke-width="0"/><path d="m185.69,80.48c2.35,1.61,4.85,3.55,7.48,5.81.98.85,2.16,1.73,3.53,2.66-.08,1.75-.24,3.42-.72,5.09-8.75-2.03-16.14-7.54-21.31-14.85.34-.05.61,0,.87.26,1.65,1.64,2.99,2.8,5.03,3.71.21.1.54.3.97.62.5.36,1.08.53,1.75.49.1,0,.15-.06.15-.16,0-.02,0-.05,0-.07,0-.05-.03-.09-.08-.12-.42-.19-.75-.48-.99-.88-.05-.08-.12-.12-.21-.12h-.13c-.1,0-.19-.03-.27-.08-.46-.3-.83-.68-1.12-1.14-.04-.07-.1-.12-.16-.16-.51-.34-.98-.74-1.39-1.21-.29-.33-.24-.38.13-.16,2.09,1.25,4.04,2.8,6.02,4.22.62.44,1.48,1.13,1.97,1.16.11,0,.12-.02.03-.08-2.48-1.6-4.78-3.43-6.89-5.5-.02-.02-.02-.04,0-.06l.08-.08s.05-.03.08,0c.17.14.48.28.92.41.26.08.71.34,1.35.8.08.05.17.09.26.09l.64.04c.12,0,.2-.04.26-.14.05-.09.08-.19.09-.3,0-.11.09-.19.2-.2l1.43-.04Z" fill="#afb9c4" stroke-width="0"/><path d="m224.47,79.38s.08-.04.12,0c.03.03.04.07.02.1l-.54,1.19c-.03.07-.12.1-.19.07-.03-.01-.05-.03-.06-.05l-.09-.17c-.07-.12-.06-.23.03-.33l.7-.8Z" fill="#040b0d" stroke-width="0"/><path d="m218.89,80.67c.49-.37.79-.43,1.14-.99.02-.04.05-.04.07,0l.06.07s.01.02.01.04c-.19.68-.58,1.06-1.17,1.15-.37.05-.41-.03-.11-.26Z" fill="#040b0d" stroke-width="0"/><path d="m217.04,80.16c.19-.05.21,0,.06.12-.21.17-.44.18-.71.02-.14-.08-.13-.12.03-.1.21.02.42,0,.62-.04Z" fill="#040b0d" stroke-width="0"/><ellipse cx="226.26" cy="80.62" rx=".49" ry=".24" transform="translate(44.68 237.85) rotate(-60.5)" fill="#040b0d" stroke-width="0"/><path d="m174.27,80.22c5.32,7.1,11.95,12.22,20.6,14.56-.04.48-.18.93-.4,1.34-.04.08-.14.11-.22.06-.03-.02-.06-.05-.07-.08-.14-.36-.21-.55-.21-.56.1-.77-.08-.84-.54-.22-.55.73-1.28,1.39-2.18,1.97-.98.64-1.99,1.22-3.02,1.75-5.27-2.06-10.56-4.53-15.86-7.41-3.66-1.98-6.92-4.28-9.78-6.89.15.04.26-.01.32-.15.04-.08.1-.11.19-.08.79.25,1.44.15,1.98-.29,2.15-1.78,3.63-2.91,6.13-3.78,2.53,4.24,6.55,8.09,11.29,9.6.71.23.74.15.1-.23-3.89-2.28-7.39-5.28-10.26-9.14,0-.27.09-.39.29-.38.55.05,1.1.02,1.64-.08Z" fill="#afb9c4" stroke-width="0"/><ellipse cx="221.72" cy="81.29" rx=".61" ry=".19" transform="translate(2.71 169.62) rotate(-42.1)" fill="#040b0d" stroke-width="0"/><path d="m216.93,83.06c.19.02.41.13.65.3-.66.21-1.33.34-2.04.4-.74.06-1.38.15-1.95.26-1.6.32-3.23.36-4.87.12-.07-.01-.1-.05-.1-.12v-.09s.03-.07.07-.07c1.59.04,3.09.09,4.68-.18,1.18-.2,2.37-.41,3.56-.62Z" fill="#757a8a" stroke-width="0"/><path d="m151.61,87.22c.84,1.57,1.78,3.08,2.84,4.52,0,0,0,.02,0,.02l-.06.04s-.07.02-.1,0c0,0,0,0,0,0-1.34-1.59-2.43-3.33-3.29-5.23l-.88-2.51s0-.04.02-.05h0s.04,0,.05.02l1.42,3.19Z" fill="#fff" stroke-width="0"/><path d="m150.99,86.57c.86,1.89,1.95,3.63,3.29,5.23.02.03.07.03.1,0,0,0,0,0,0,0l.06-.04s.01-.02,0-.02c-1.06-1.44-2-2.94-2.84-4.52.02-.12.04-.19.08-.24.04-.04.1-.03.18.03.29.23.61.42.95.57.08.03.15.09.19.16.21.31.51.48.9.51.09,0,.14.05.17.13.01.03.04.06.09.09.06.03.12.04.19.04.14,0,.27.08.4.23.33.38.66.76.99,1.14.17.19.25.19.24,0,4.02,4.77,8.08,8.12,13.06,11.89,2.03,1.54,4.02,3.36,5.97,5.46-1.29-.4-2.61-.75-3.97-1.04-2.09-.44-3.54-2.07-4.93-2.92-1.08-.66-2.41-1.19-3.99-1.61-3.64-1.34-7.11-.89-10.41,1.33-.33.22-.59.42-.79.61-.03.03-.03.08,0,.11.02.02.05.03.08.02,2.56-1.03,5.82-2,8.42-1.63,3.93.57,7.02,3.86,8.35,7.48.64,1.72,1.18,3.49,1.62,5.29-.14-.1-.23-.24-.27-.4-.01-.05-.08-.1-.18-.13-.03,0-.05,0-.06.03-.04.07-.11.11-.19.11-.34,0-.54-.15-.57-.46-.06-.49-.36-.76-.46-1.23-.18-.84-.39-1.5-.62-1.98-.59-1.23-1.49-2.84-2.69-4.81-.66-1.08-1.53-1.93-2.63-2.54-.06-.03-.12-.08-.16-.14-.05-.07-.13-.12-.21-.15-.05-.02-.11-.02-.17,0-.13.04-.25.03-.36-.03-.07-.03-.14-.06-.21-.07l-1.58-.2c-.09-.01-.17,0-.24.06-.15.1-.31.12-.47.07-.09-.03-.17-.04-.27-.02-1.58.29-3.12.71-4.63,1.27-1.97.72-3.14,1.59-3.57,3.62-.35,1.66-.43,3.34-.24,5.04.44,3.8.72,7.6.85,11.42.15,4.53.48,13.24,7.08,12.97,2.62-.1,4.75-1.06,7.96-2.13,2.08-.69,4.4-.93,6.96-.7l1.35,4.27c.01.22.07.41.16.56.07.11.11.1.13-.03.02-.17-.01-.35-.1-.54l-.37-2.45v-.58c0-.09.08-.17.17-.17.04,0,.07.01.1.03l1.17.85c.08.06.17.06.26.01.09-.05.17-.06.24-.02.07.04.12.12.16.25.11.43.23.89.37,1.39.02.08.11.13.19.11.04-.01.07-.04.09-.07.02-.03.06-.05.12-.05.78,5.45.38,10.9-.93,16.23-2.05,8.31-7.47,16.58-15.19,20.68-4.36,2.32-8.28,1.19-9.67-3.78-1.16-4.15-.98-8.39-1.11-12.65-.12-4.01-1.2-7.84-2.02-11.73-1.8-8.59-2.39-17.49-1.22-26.21.43-3.24-.8-5.27-1.3-8.17-.56-3.26-.01-6.14-.28-9.26-.01-.14-.07-.16-.18-.07-.04.03-.07.13-.09.3h-.21c-.08.01-.14.05-.19.11-1.42,2.1-2.33,3.89-2.74,5.38-.45,1.65-.65,3.6.14,5.18.11.22.11.39,0,.53-.08.1-.15.09-.21-.02l-1.7-3.19c.43-.06.43-.41,0-1.07-.27-.42-.24-.77-.44-1.19-1.25-2.62-.68-5.77.48-8.46,1.69-3.92,3.99-7.44,6.9-10.56,1.2-1.29,2.79-2.84,4.45-3.5Zm16.77,63.25c-.81,6.41-3.3,12.13-6.62,17.64-.16.27-.12.31.13.11.21-.17.46-.42.76-.74,6.15-6.83,9.02-17.78,5.46-26.48-.01-.03-.04-.04-.07-.03l-.07.02c-.07.02-.11.09-.09.16.42,1.67.64,2.98.64,3.93,0,1.8.09,3.69-.13,5.4Zm.91,6.28c-.08.22-.14.46-.18.71-.02.14.03.18.16.12.14-.08.25-.2.33-.36,1.93-4.19,2.22-8.57,1.38-13.24,0-.03-.04-.06-.07-.05-.01,0-.03,0-.04.02l-.06.07c-.09.1-.13.21-.13.35.2,4.04-.21,7.88-1.25,11.5-.08.29-.02.57-.14.89Z" fill="#afb9c4" stroke-width="0"/><path d="m214.04,88.52c-.74.47-1.67.88-2.78,1.21-4.93,1.48-9.71,1.41-13.98-1.59,2.76-.35,5.4-1.03,8.22-1.11,1.49-.04,2.56.15,4.16.63,1.41.43,2.87.71,4.38.86Z" fill="#757a8a" stroke-width="0"/><path d="m163.83,87.21c7.02,5.51,15.16,8.96,23.29,12.48-.48.22-.91.33-1.34.62-1.06.73-2.19,1.41-3.39,2.02-.76-.2-1.52-.04-2.28.49-.08.05-.07.1,0,.15l.7.43c-.5.46-.9.72-1.22.79-.76.17-1.31.5-1.66.98-.89-.96-1.78-1.98-2.68-3.05-1.23-1.49-3.02-2.86-5.35-4.13-.42-.23-.92-.41-1.5-.55-.14-.03-.27.05-.3.19,0,.03,0,.06,0,.09.03.28.19.53.46.74,2.32,1.78,4.52,3.7,6.6,5.75.32.31.66.76,1.01,1.33-.81-.34-1.28-.32-1.42.05-3.38-3.39-7.42-6.25-10.41-8.74-3.04-2.53-6.27-5.71-8.67-9.14l.23-.2c.08-.07.15-.07.23,0,1.28,1.12,2.73,2.17,4.35,3.16.04.02.08.04.11.05.06.01.1.05.12.1.06.15.17.2.32.15.08-.03.16-.02.24.02,1.05.61,2.03,1.69,2.91,2.09,1.16.53,1.2.45.13-.24-1.13-.73-2.28-1.76-3.44-3.11-.17-.19-.22-.45-.45-.72-.16-.19-.25-.41-.26-.67,0-.23.06-.25.19-.06l.09.13c.04.06.1.09.17.1.15.01.22-.06.23-.24.01-.31-.11-.66-.39-1.06-.02-.03-.01-.05.01-.07h0s.05-.02.07,0c.96,1.03,2,1.99,3.09,2.87.93.75,2.26,1.41,3.33,2.26.01,0,.02,0,.03,0l.07-.06s.04-.08,0-.12c0,0,0,0-.01-.01l-3.23-2.48c-.08-.06-.11-.14-.11-.23.02-.45-.15-.84-.51-1.15-.19-.17-.22-.34-.09-.53.05-.07.06-.15.03-.24l-.1-.26c-.05-.14-.02-.16.1-.08.39.27.61.3.65.08Zm12.99,13.78c.71.61,1.39,1.25,2.05,1.91.04.04.07.04.11,0l.07-.06c.06-.05.06-.11,0-.17-1.72-1.95-3.66-3.62-5.84-5.04-.01,0-.02,0-.03,0l-.04.06s-.02.07.01.1c1.11.99,2.21,1.99,3.31,2.99.04.04.1.07.18.1.07.03.13.06.18.11Z" fill="#afb9c4" stroke-width="0"/><path d="m196.7,88.94c2.9,1.7,5.57,2.76,9,2.64,2.38-.09,5.98-.71,7.81-2.36.13-.12.15-.1.07.05-1.04,1.99-1.95,2.81-4.01,3.68-4.44,1.88-8.97,2.23-13.6,1.08.48-1.67.64-3.33.72-5.09Z" fill="#757a8a" stroke-width="0"/><path d="m188.22,99.05c1.03-.53,2.04-1.11,3.02-1.75.9-.58,1.63-1.24,2.18-1.97.46-.62.64-.54.54.22,0,.01.07.2.21.56.03.08.13.12.22.09.03-.01.06-.04.08-.07.23-.41.36-.86.4-1.34,5.6,1.2,11.01,1.02,16.11-1.77.02,0,.05,0,.06.02,0,.01,0,.03,0,.04-1.14,1.52-2.22,3.3-3.68,4.49-1.53,1.24-3.03,2.2-4.52,2.88-4.2,1.91-10.43.3-14.61-1.39Z" fill="#757a8a" stroke-width="0"/><path d="m191.58,152.15c-.09-.15.02-.31.33-.48.2-.11.36-.21.46-.3,3.79-3.28,7.11-6.07,11.04-10.12,2.82-2.91,5.4-6.02,7.72-9.32,4.78-6.79,8.77-13.91,4.97-22.33-1.2-2.67-2.64-5.42-3.52-8.19-.44-1.38-.67-2.36-.69-2.95-.04-1.29-.14-2.62-.3-3.99,0-.11.09-.25.24-.41.07-.08.11-.06.13.04.34,2.87,1.14,5.47,2.4,7.79,2.14,3.97,4.06,7.24,4.53,11.33.8,6.96-2.08,13.08-6.16,18.61-5.11,6.94-11.37,13.68-18.37,18.75-.94.68-1.86,1.2-2.77,1.58Z" fill="#ccd9e2" stroke-width="0"/><path d="m87.59,94.45c-.81,1.15-1.97,2.17-3.07,3.04-4.16,3.31-8.47,6.37-12.03,10.36-.02.03-.05.03-.07,0l-.05-.07s-.03-.1,0-.14c1.75-2.13,3.25-3.72,4.48-4.76,3.43-2.9,7.03-5.58,10.42-8.52.1-.08.15-.12.17-.13.21-.03.25.05.13.22Z" fill="#fff" stroke-width="0"/><path d="m211.59,94.46c.17,1.37.27,2.7.3,3.99.01.58.24,1.57.69,2.95.88,2.77,2.32,5.53,3.52,8.19,3.81,8.43-.18,15.54-4.97,22.33-2.33,3.3-4.9,6.41-7.72,9.32-3.93,4.05-7.25,6.83-11.04,10.12-.1.09-.26.19-.46.3-.31.17-.42.33-.33.48-.92.47-1.68.33-2.3-.43-.82-1-.43-4.34-.17-5.92.78-4.65,2.31-8.78,4.06-13.44,1.84-4.9,2.12-10.32,1.7-15.52-.03-.31.06-.59.24-.84,4.46-5.79,9.04-11.52,13.27-17.48.95-1.34,2.01-2.69,3.19-4.06Zm1.27,26.03c-.25-3.75-1.6-6.93-3.69-10.03,0-.01-.02-.02-.03,0l-.06.03s-.05.06-.03.1c1.6,3.27,3.11,6.05,3.64,9.96,0,.02.01.03.04.03h.07s.07-.04.06-.09Zm-3.74,7.69c2.3-5.64,1.27-11.62-1.23-16.96-.03-.06-.1-.09-.16-.07l-.07.03s-.04.03-.03.06c1.73,5.82,2.18,11.31,1.19,17.27-.02.11.01.12.09.04.08-.09.15-.21.21-.37Zm.48-14.58c1,3.02,1.76,5.91,1.64,9.14-.03.84.07.85.3.05.41-1.44.04-3.74-.27-5.27-.15-.75-.65-2.06-1.49-3.95-.02-.04-.05-.05-.09-.04l-.07.03s-.03.02-.02.05Z" fill="#757a8a" stroke-width="0"/><path d="m177.95,105.18c1.12,1.85,1.9,4.34,1.81,6.54,0,.19-.06.2-.14.03-1.08-2.15-1.99-4.14-3.43-6.21-.35-.57-.69-1.02-1.01-1.33-2.08-2.05-4.28-3.97-6.6-5.75-.27-.21-.43-.46-.46-.74-.02-.14.08-.26.22-.28.03,0,.06,0,.09,0,.58.14,1.08.32,1.5.55,2.33,1.26,4.12,2.64,5.35,4.13.89,1.08,1.79,2.1,2.68,3.05Z" fill="#ccd9e2" stroke-width="0"/><path d="m176.82,100.99c-.05-.05-.11-.08-.18-.11-.08-.03-.14-.06-.18-.1-1.1-1-2.2-2-3.31-2.99-.03-.02-.03-.07-.01-.1l.04-.06s.02-.01.03,0c2.18,1.41,4.12,3.09,5.84,5.04.05.06.05.12,0,.17l-.07.06s-.08.03-.11,0c-.66-.66-1.34-1.3-2.05-1.91Z" fill="#ccd9e2" stroke-width="0"/><path d="m194.87,114.32c-.24.02-.33-.09-.27-.32.05-.2-.07-.41-.28-.46-.06-.01-.12-.01-.18,0-1.71.44-3.39,1.01-5.02,1.72-.67.29-.71.23-.11-.19.79-.56,1.84-1.03,3.14-1.41.64-.19,1.27-.38,1.9-.58.07-.02.1-.07.1-.14,0-.03,0-.06,0-.09,0-.06-.04-.1-.1-.11,0,0,0,0-.01,0l-1.6.03-1.1-1.39c.83-.4,1.73-.7,2.73-.88.07-.01.12-.08.11-.16,0-.03-.02-.05-.04-.07-.88-.82-1.92-1.42-3.1-1.8-1.16-.36-1.91-.55-2.27-.57-1.7-.07-1.7-.19-.01-.37,2.38-.25,4.94-.79,7.67-1.62,2.04-.62,3.65-1.95,5.42-3.33.02-.01.03-.03.04-.04.01-.02.02-.05.02-.07,0-.05.04-.09.09-.12.63-.31,1.18-.73,1.66-1.27,1.03-.53,1.97-1.18,2.81-1.97.02-.01.03-.01.05,0h0s.02.03,0,.05l-11.65,15.15Z" fill="#afb9c4" stroke-width="0"/><path d="m135.29,100.74c0,.29-.03.49-.1.6-.07-.05-.09-.15-.06-.28.02-.1.02-.19.02-.27,0-.02-.02-.04-.04-.04-.02,0-.04.02-.04.05,0,.39-.02.78.06,1.16.9,4.15,2.22,8.11,3.96,11.88.02,2.92.07,5.79.14,8.63.05,1.75-.03,3.4-.23,4.94-.59,4.57-2.98,8.66-6.16,11.95-5.75,5.96-12.88,10.53-20.12,14.45-8.61,4.65-17.51,8.7-26.67,12.14-2.64.99-5.29,1.97-7.95,2.93-2.53.92-5.68,1.96-8.46,3.19-2.75,1.22-5.35,2.68-7.82,4.4-.11.08-.18.17-.22.27-.04.12,0,.17.12.13l.4-.1c-1.6.92-2.82,2.18-3.65,3.79-.22.42-.46.73-.73,1.1-.03.05-.09.06-.14.02-.01,0-.02-.02-.03-.03-.08-.16-.09-.33-.03-.52.6-1.78,1.45-3.45,2.56-5.01.03-.04.02-.1-.02-.13-.02-.01-.04-.02-.06-.02-.2.02-.36.11-.48.27-1,1.27-1.83,2.76-2.48,4.47-.69-1.87-1.85-3.94-3.88-2.94-.66.32-1.38.91-2.15,1.75-.48-.27-.88-.34-1.2-.23-.09.01-.16.11-.22.29-.03.09,0,.16.07.22,1.01.75,1.72,1.7,2.15,2.82,2.34,6.27,2.68,12.68,1.03,19.23-2.17,8.59-7.88,17.25-15.74,21.74-2.14,1.23-4.38,2.27-6.7,3.14-5.32.35-18.57.98-18.21-7.65.11-2.67.75-5.16,1.91-7.46.48-.05.74.05.79.32.03.17.21.27.4.21.09-.03.17-.09.23-.17.38-.62.76-1.22,1.14-1.79.69-1.03,1.73-2.22,2.51-3.41.05-.08.12-.09.2-.05l.07.04s.05.06.03.1c-.23.39-.46.69-.57,1.14-.4,1.6-.96,2.69-.74,4.57,0,.03.02.04.05.04h0s.04-.02.04-.04c.05-1.95,1.17-5.1,2.6-6.71.25-.29.49-.59.71-.89.08-.11.12-.1.13.03l.07.8c-.25,1.97-.25,3.95,0,5.92,0,.03.02.05.05.04h0s.05-.02.05-.05c-.05-2.37-.05-4.16.46-6.88.45-.26.51-.03.18.71-.03.08-.05.16-.04.25.08.75.1,1.41.04,1.98,0,.06-.04.11-.1.15-.07.05-.11.12-.1.2.07,1.19.03,2.38-.14,3.57-.04.3-.28.67-.13,1.08.04.13.07.12.09,0,.4-3.15,1.53-7.52,4.18-9.55,1.5-1.15,3-2.3,4.51-3.45,7.07-5.39,11.92-12.35,14.54-20.87.99-3.22,1.22-5.85,1.49-9.49.06-.77.66-1.35,1.39-.75,1.45,1.2,1.91,5.91,1.92,7.62,0,.5.08.51.24.04,1.56-4.76,6.03-7.74,9.41-10.28,6.41-4.83,10.91-10.24,15.72-16.19,2.29-2.83,4.5-5.34,7.31-7.52.11-.08.21-.19.32-.33.25-.34.41-.39.47-.16l-1.35,2.93s0,.04.02.05h0s.04,0,.06-.02c.68-1.18,1.47-2.28,2.36-3.3.68-.78,1.24-1.71,1.95-2.54l-.91,1.8c-.05.1-.02.15.09.15.09,0,.15-.03.2-.09.58-.74,1.24-1.19,1.76-1.94.3-.43.63-.74.99-.93.42-.22.51-.13.27.28-.4.69-.84,1.43-1.32,2.23-.32.53-.84,1.78-1.56,3.75-.01.03,0,.07.04.09,0,0,0,0,0,0l.07.02s.02,0,.03-.01c.91-2.46,2.17-4.54,3.69-6.66.7-.99,1.57-1.81,2.42-2.65.4-.4.54-.32.39.23-.02.09-.12.27-.3.55-.58.89-1.14,1.79-1.7,2.7-1.22,2.01-2.02,3.88-2.82,6.07-.01.04-.02.08-.02.1,0,.11.03.11.08,0,2.28-5.13,5.32-9.16,9.02-13.39,1.8-2.06,4.17-3.73,7.14-5.01,2.12-.91,3.79-2.86,5.55-4.61,2.16-2.14,4.57-4,7.24-5.57,5.07-3,9.33-7.44,15.63-7.89.23-.02.45.07.61.23l1.06,1.08c.06.06.12.07.2.02l.06-.04s.05-.06.02-.09c-1.07-1.47-1.73-3.1-1.99-4.9-.01-.09.03-.2.1-.26.06-.05.12-.03.14.05l.08.4c.02.09.05.18.09.27l1.83,3.64s.07.06.11.04c.02,0,.03-.02.04-.04.1-.28.07-.48-.08-.59-.07-.05-.11-.12-.14-.21-.26-.9-.69-1.86-.88-2.64-.39-1.59-.45-3.2-.16-4.84.11-.63,1.12-.76,1.38-.1.09.23.16.43.22.61Zm-25.4,38.87c-.74,1.15-1.42,2.34-2.05,3.56-.01.03,0,.05.02.07h0s.05.01.07-.01c.43-.67.88-1.32,1.36-1.96,5.99-8,12.98-15.01,20.96-21.03.73-.55,2.35-1.64,4.85-3.27.09-.06.08-.09-.02-.1-.2-.02-.36,0-.46.05-3.83,1.73-7.42,3.86-10.76,6.4-1.27.97-2.54,1.91-3.66,3.02-3.95,3.9-7.35,8.24-10.2,13.02-.02.03-.03.07-.04.1,0,.06-.03.11-.06.16Zm9.54-14.23c.05-.03.1-.06.15-.11,2-2.11,4.06-4.16,6.18-6.16.06-.06.07-.16,0-.22-.02-.03-.06-.04-.09-.05h-.09c-.16-.03-.31,0-.44.1-2.62,1.81-5.78,4.77-7.1,7.77,0,.02,0,.05,0,.07,0,.03.02.05.03.08,0,.03.04.04.07.03.01,0,.02,0,.03-.02l1.03-1.31c.06-.08.14-.14.23-.19Zm-76.95,72.71c.12-.07.2-.21.24-.42.63-3.16,1.65-6.49,3.07-9.58,1.08-2.33,2.43-4.79,3.33-6.94.08-.18.05-.32-.06-.43-.07-.07-.14-.06-.2.01-4.63,5.6-7.23,12.89-6.99,20.15.02.56.08.57.19.02.17-.86.28-1.74.32-2.62,0-.08.04-.14.11-.19Zm4.67-10.98c-1.11,1.84-2.23,4.03-2.86,6.09-1.58,5.15-2.05,10.87-2.03,15.89,0,.04.02.06.06.06h0s.06-.02.06-.06c.54-6.18,1.9-12.17,4.1-17.95.72-1.91,1.96-3.83,2.46-5.85.09-.36,0-.41-.26-.15-.58.57-1.09,1.23-1.53,1.97Zm-19.97,37.29c3.54-.31,8.3-1.99,10.52-4.9.03-.04.02-.1-.02-.13-.02-.01-.04-.02-.07-.02-.2.02-.39.1-.55.23-2.93,2.34-6.23,3.91-9.9,4.7-.03,0-.05.03-.04.06h0s.03.05.06.05Z" fill="#afb9c4" stroke-width="0"/><path d="m187.12,99.7c4.98,1.87,11.4,3.8,16.52,1.39-.47.54-1.03.96-1.66,1.27-.05.02-.08.06-.09.12,0,.02-.01.05-.02.07,0,.01-.02.03-.04.04-1.77,1.38-3.38,2.71-5.42,3.33-2.73.83-5.29,1.37-7.67,1.62-1.69.18-1.69.3.01.37.36.01,1.12.2,2.27.57,1.19.38,2.22.98,3.1,1.8.05.05.06.14,0,.19-.02.02-.04.04-.07.04-.99.18-1.9.48-2.73.88-1.39.58-2.94,1.18-4.12,1.91-2.86,1.77-4.84,4.23-5.93,7.38-.14.41-.09.43.15.07,2.49-3.73,6.46-7.22,11.01-7.97l1.6-.03c.06,0,.11.04.11.1,0,0,0,0,0,.01,0,.03,0,.06,0,.09,0,.07-.03.12-.1.14-.63.2-1.27.4-1.9.58-1.3.38-2.35.85-3.14,1.41-.6.42-.56.49.11.19,1.63-.71,3.3-1.29,5.02-1.72.2-.05.41.07.46.28.02.06.02.12,0,.18-.06.23.03.33.27.32-2.56,3.43-5.07,6.91-7.96,10.07-3.1,3.39-6.32,6.65-9.65,9.78-.03.03-.08.03-.11,0-.01-.01-.02-.03-.02-.05-.38-2.91-1.17-5.7-2.36-8.39-.65-1.46-1.32-2.9-2.01-4.34-1.81-3.76-2.37-8.08-3.83-11.99-1.29-3.44-3.6-5.93-6.81-7.75,1.58.42,2.92.95,3.99,1.61,1.39.85,2.84,2.48,4.93,2.92,1.36.29,2.69.64,3.97,1.04,1.72,1.85,2.69,4.04,2.93,6.57,0,.03.02.05.05.05h0s.05-.02.05-.05c.12-3.06-1.28-5.9-3.29-8.2.14-.37.62-.39,1.42-.05,1.44,2.06,2.35,4.06,3.43,6.21.09.17.13.16.14-.03.1-2.2-.69-4.69-1.81-6.54.35-.48.9-.81,1.66-.98.31-.07.72-.33,1.22-.79,3.5,1.05,7.09,1.6,10.76,1.66.01,0,.02,0,.02-.02,0,0,0-.01,0-.02,0-.03,0-.04-.03-.05l-9.18-2.63c1.2-.61,2.33-1.29,3.39-2.02.43-.3.86-.4,1.34-.62Zm-7.71,29.79l4.62-4.54s.02-.04,0-.05c0,0,0,0,0,0h0c-.22-.22-1.43.61-2.7,1.86l-.06.06c-1.27,1.25-2.12,2.44-1.9,2.67h0s.04.02.05,0c0,0,0,0,0,0Z" fill="#757a8a" stroke-width="0"/><path d="m135.29,100.74c.4.66.7,1.37.88,2.12.14.57.26,1.01.36,1.31.19.58.32,1.19.57,1.73.81,1.77,1.65,3.59,2.5,5.45l1.7,3.19c.06.11.13.12.21.02.11-.14.11-.31,0-.53-.79-1.58-.58-3.54-.14-5.18.4-1.49,1.32-3.29,2.74-5.38.05-.07.11-.1.19-.1h.21c-1.08,3.77-1.09,7.57-.03,11.39.41,1.48,1.01,3,.86,4.56-.08.85-.17,1.7-.27,2.54-.02.14-.06.15-.15.04-3.4-4.76-6.23-10.28-8.25-15.41-.54-1.36-1.03-3.08-1.48-5.14.07-.11.1-.3.1-.6Z" fill="#757a8a" stroke-width="0"/><path d="m182.39,102.34l9.18,2.63s.03.02.03.05c0,0,0,.01,0,.02,0,.01,0,.02-.02.02-3.67-.06-7.26-.61-10.76-1.66l-.7-.43c-.08-.05-.08-.1,0-.15.76-.53,1.51-.69,2.28-.49Z" fill="#ccd9e2" stroke-width="0"/><path d="m169.38,114.87c.7,2.94,1.29,4.93,1.8,5.96.75,1.53,1.48,3.06,2.19,4.6,1.88,4.06,2.64,8.18,3.14,12.59-.06,0-.1.02-.12.05-.04.07-.14.1-.21.05-.03-.02-.06-.05-.07-.09-.14-.49-.26-.96-.37-1.39-.03-.13-.09-.22-.16-.25-.08-.04-.16-.03-.24.02-.09.05-.17.05-.26-.01l-1.17-.85c-.08-.06-.18-.04-.24.03-.02.03-.03.07-.03.1v.58c-.23-1.45-.37-3.12-.57-4.36-.81-5.06-2.28-9.72-4.39-13.99-2.12-4.26-4.96-8.28-8.52-12.07-.42-.44-.62-.74-1.24-.93-.27-.08-.45-.02-.53.18-.04.09-.03.2.01.29,1.51,2.98,3.63,5.66,5.4,8.49,3.89,6.21,6.79,13.38,8.67,20.57-2.56-.22-4.88.01-6.96.7-3.21,1.07-5.34,2.03-7.96,2.13-6.6.26-6.93-8.45-7.08-12.97-.13-3.82-.41-7.63-.85-11.42-.2-1.7-.12-3.38.24-5.04.43-2.03,1.59-2.9,3.57-3.62,1.51-.55,3.05-.98,4.63-1.27.09-.02.18-.01.27.02.17.06.33.04.47-.07.07-.05.15-.07.24-.06l1.58.2c.07,0,.14.03.21.07.11.06.23.07.36.03.06-.02.11-.01.17,0,.09.03.16.08.21.15.04.06.1.1.16.14,1.1.61,1.97,1.46,2.63,2.54,1.2,1.97,2.1,3.58,2.69,4.81.23.48.44,1.14.62,1.98.1.47.4.74.46,1.23.04.32.23.47.57.46.08,0,.15-.04.19-.11.02-.03.04-.04.06-.03.1.03.16.08.18.13.05.16.14.3.27.4Zm-15.16-9.1s-.01-.03-.02,0c0,.33.03.65.1.97.99,4.31,2.82,8.23,5.48,11.76.88,1.16,1.85,2.22,2.93,3.18.07.06.14.06.21,0l.05-.05s.03-.07,0-.1c-3.74-4.67-6.64-10.1-8.77-15.75Zm1.67,9.23c1.28,3.08,3.16,5.96,5.6,8.18.2.19.37.29.51.31.3.05.34-.03.13-.24-2.56-2.56-4.28-5.73-6.04-8.93-.03-.05-.1-.07-.15-.04-.02.01-.04.03-.05.05-.09.2-.09.42.01.66Z" fill="#ccd9e2" stroke-width="0"/><path d="m173.63,136.27l.37,2.45c-.06-.03-.12-.03-.19,0l-1.35-4.27c-1.89-7.19-4.79-14.36-8.67-20.57-1.77-2.83-3.89-5.51-5.4-8.49-.05-.09-.05-.2-.01-.29.08-.2.26-.26.53-.18.63.19.83.49,1.24.93,3.57,3.79,6.41,7.81,8.52,12.07,2.12,4.26,3.58,8.93,4.39,13.99.2,1.24.34,2.9.57,4.36Z" fill="#fff" stroke-width="0"/><path d="m154.22,105.77c2.12,5.65,5.03,11.08,8.77,15.75.03.03.02.08,0,.1l-.05.05c-.07.06-.14.06-.21,0-1.08-.96-2.05-2.02-2.93-3.18-2.67-3.52-4.49-7.44-5.48-11.76-.07-.32-.11-.64-.1-.97,0-.03,0-.03.02,0Z" fill="#fff" stroke-width="0"/><path d="m209.17,110.46c2.09,3.1,3.44,6.28,3.69,10.03,0,.05-.02.07-.06.08h-.07s-.04,0-.04-.02c-.53-3.91-2.04-6.69-3.64-9.96-.02-.04,0-.08.03-.1l.06-.03s.02,0,.03,0Z" fill="#ccd9e2" stroke-width="0"/><path d="m209.12,128.19c-.07.16-.14.28-.21.37-.08.08-.1.07-.09-.04.99-5.96.54-11.45-1.19-17.27,0-.03,0-.05.03-.06l.07-.03c.06-.02.13,0,.16.07,2.5,5.34,3.53,11.32,1.23,16.96Z" fill="#ccd9e2" stroke-width="0"/><path d="m191.35,111.38l1.1,1.39c-4.55.75-8.52,4.24-11.01,7.97-.24.36-.29.33-.15-.07,1.09-3.15,3.07-5.6,5.93-7.38,1.19-.74,2.73-1.33,4.12-1.91Z" fill="#ccd9e2" stroke-width="0"/><path d="m211.24,122.75c.12-3.23-.64-6.12-1.64-9.14,0-.02,0-.04.02-.05l.07-.03s.08,0,.09.04c.85,1.89,1.34,3.21,1.49,3.95.3,1.53.68,3.83.27,5.27-.23.81-.33.79-.3-.05Z" fill="#ccd9e2" stroke-width="0"/><path d="m139.07,113.84c1.68,3.37,3.59,6.54,5.71,9.52.07.09.08.3.05.61-1,9.85.76,19.79,3.03,29.3.08.31.12.71.12,1.19,0,.09-.04.16-.12.21-9.26,5.61-19.05,10.42-29.3,13.95-10.72,3.69-21.54,6.32-32.48,7.89-3.17.46-6.87.89-11.11,1.3-.74.07-1.88-.02-2.89.31-5.45,1.78-10.36,4.55-14.54,8.48-.08.08-.15.07-.2-.03-1-1.93-2.04-3.5-3.14-4.7-.87-.95-1.94-1.73-3.21-2.35.78-.84,1.5-1.43,2.15-1.75,2.03-1,3.18,1.06,3.88,2.94l.22,1.26c.05.27.16.3.34.1.03-.04.08-.09.13-.14,6.54-6.26,15.29-9.97,23.94-12.2.02,0,.02-.03.02-.04,0-.01-.02-.02-.03-.02-.65.04-1.31.15-2,.32-5.76,1.42-11.28,3.15-16.61,6.11-.22.12-.53.34-.94.66l-.4.1c-.12.03-.16-.01-.12-.13.04-.11.11-.2.22-.27,2.47-1.71,5.08-3.18,7.82-4.4,2.78-1.23,5.93-2.27,8.46-3.19,2.66-.96,5.3-1.94,7.95-2.93,9.17-3.44,18.06-7.49,26.67-12.14,7.25-3.92,14.37-8.49,20.12-14.45,3.18-3.29,5.57-7.38,6.16-11.95.2-1.54.28-3.19.23-4.94-.08-2.83-.12-5.71-.14-8.63Zm-14.09,45.94c2.66-1.45,5.61-3.2,7.87-5.38.27-.26.45-.48.53-.65.01-.03,0-.06-.02-.07-.02,0-.04,0-.06,0-3.92,3.07-8.29,5.68-12.67,8.1-.03.02-.04.04-.02.07h0s.04.04.07.03c1.46-.64,2.9-1.34,4.3-2.11Zm8.81-3.89c-4.95,3.17-7.49,4.74-11.92,7.18-.03.02-.04.04-.02.08h0s.04.04.08.03c2.89-1.16,5.84-2.71,8.88-4.67,1.31-.84,2.37-1.68,3.19-2.5.08-.08.06-.13-.04-.16-.05-.01-.1,0-.15.04Zm-25.78,7.7c-.02-.08-.11-.12-.18-.1l-2.74.83c-.08.02-.12.11-.1.18h0c.02.09.11.13.18.11l2.74-.83c.08-.02.12-.11.1-.18h0Zm-17.31,4.19s-.02,0-.03,0h0s0,0,0,0c.29,0,.74-.07,1.33-.18,3.68-.68,7.08-1.38,10.29-2.62.09-.03.12-.1.09-.19l-.02-.07s-.05-.06-.09-.05c-2.76.83-5.54,1.57-8.34,2.23-1.09.25-2.16.54-3.23.86Zm6.55.96c3.01-.42,5.93-1.17,8.76-2.26.92-.35,1.59-.65,2.03-.91.82-.48.77-.58-.13-.31-4.69,1.39-9.37,2.75-14.22,3.62-.07.01-.11.07-.1.14v.08s.03.05.07.04c1.21-.1,2.41-.23,3.61-.4Z" fill="#757a8a" stroke-width="0"/><path d="m161.49,123.18c-2.45-2.22-4.32-5.1-5.6-8.18-.1-.23-.1-.45-.01-.66.03-.06.09-.08.15-.06.02,0,.04.03.05.05,1.76,3.19,3.48,6.37,6.04,8.93.21.21.17.29-.13.24-.13-.02-.3-.13-.51-.31Z" fill="#fff" stroke-width="0"/><path d="m109.95,139.45s.02-.07.04-.1c2.85-4.78,6.25-9.12,10.2-13.02,1.12-1.11,2.39-2.05,3.66-3.02,3.34-2.54,6.93-4.67,10.76-6.4.11-.05.26-.07.46-.05.1,0,.11.04.02.1-2.5,1.63-4.12,2.72-4.85,3.27-7.98,6.02-14.97,13.03-20.96,21.03-.48.64-.93,1.29-1.36,1.96-.02.03-.04.03-.07.02h0s-.03-.04-.02-.07c.62-1.22,1.31-2.41,2.05-3.56.03-.05.05-.1.06-.16Z" fill="#ccd9e2" stroke-width="0"/><path d="m119.2,125.57l-1.03,1.31s-.05.03-.08.01c0,0-.01-.01-.02-.02-.01-.03-.02-.05-.03-.08,0-.02,0-.04,0-.07,1.31-3.01,4.47-5.96,7.1-7.77.13-.09.28-.13.44-.11h.09c.09.02.15.1.14.19,0,.04-.02.07-.05.09-2.12,2-4.18,4.06-6.18,6.16-.04.05-.09.08-.15.11-.09.05-.17.11-.23.19Z" fill="#ccd9e2" stroke-width="0"/><path d="m59.01,128.65c1.33-3.27,2.89-6.43,4.93-9.32.19-.27.26-.24.19.08-.08.37-.29.87-.65,1.5-1.97,3.41-3.9,6.96-5.18,10.7-.02.04-.05.06-.09.04l-.11-.03s-.06-.04-.05-.09c.27-1,.59-1.96.97-2.89Z" fill="#fff" stroke-width="0"/><path d="m86.63,138.92c-.71.83-1.27,1.76-1.95,2.54-.89,1.03-1.67,2.13-2.36,3.3-.01.02-.03.03-.06.02h0s-.03-.03-.02-.05l1.35-2.93c2.99-5.99,7.26-11.23,12.4-15.51,2.27-1.89,4.91-3.86,7.8-4.65.21-.06.42.06.48.27.03.1.01.21-.04.3-.09.16-.23.31-.43.47-2.68,2.04-5.66,4.13-8,6.2-1.94,1.72-3.79,3.53-5.54,5.44-.61.66-1.82,2.2-3.63,4.6Z" fill="#fff" stroke-width="0"/><path d="m179.41,129.49s-.04.01-.05,0c0,0,0,0,0,0h0c-.22-.23.63-1.42,1.9-2.67l.06-.06c1.27-1.25,2.48-2.08,2.7-1.86h0s.02.04,0,.05c0,0,0,0,0,0l-4.62,4.54Z" fill="#ccd9e2" stroke-width="0"/><path d="m173.81,138.72c.07-.03.13-.04.19,0,.09.19.12.37.1.54-.02.13-.06.14-.13.03-.1-.16-.15-.34-.16-.56Z" fill="#ccd9e2" stroke-width="0"/><path d="m161.14,167.46c3.32-5.5,5.81-11.23,6.62-17.64.21-1.7.13-3.6.13-5.4,0-.94-.22-2.25-.64-3.93-.02-.07.02-.14.09-.16l.07-.02s.06,0,.07.03c3.56,8.7.69,19.66-5.46,26.48-.29.33-.55.57-.76.74-.25.2-.29.16-.13-.11Z" fill="#ccd9e2" stroke-width="0"/><path d="m168.68,156.1c.12-.32.06-.6.14-.89,1.03-3.62,1.45-7.46,1.25-11.5,0-.14.03-.25.13-.35l.06-.07s.06-.03.09,0c.01,0,.02.02.02.04.84,4.66.55,9.04-1.38,13.24-.08.17-.19.29-.33.36-.13.07-.19.03-.16-.12.04-.25.1-.48.18-.71Z" fill="#ccd9e2" stroke-width="0"/><path d="m124.99,159.79c-1.4.77-2.83,1.47-4.3,2.11-.03.01-.05,0-.07-.03h0s0-.05.02-.07c4.39-2.42,8.75-5.03,12.67-8.1.02-.02.06-.01.08,0,.01.02.02.04,0,.06-.08.17-.26.38-.53.65-2.26,2.18-5.22,3.93-7.87,5.38Z" fill="#ccd9e2" stroke-width="0"/><path d="m121.87,163.07c4.44-2.44,6.97-4.01,11.92-7.18.06-.04.11-.05.15-.04.11.03.12.09.04.16-.81.82-1.88,1.65-3.19,2.5-3.03,1.95-5.99,3.51-8.88,4.67-.03.01-.06,0-.08-.03h0s0-.06.02-.08Z" fill="#ccd9e2" stroke-width="0"/><rect x="104.92" y="163.9" width="3.16" height=".31" rx=".15" ry=".15" transform="translate(-42.87 37.78) rotate(-16.8)" fill="#ccd9e2" stroke-width="0"/><path d="m90.7,167.78c1.06-.32,2.14-.61,3.23-.86,2.8-.66,5.58-1.4,8.34-2.23.05-.01.08,0,.09.05l.02.07c.03.09,0,.15-.09.19-3.21,1.24-6.61,1.95-10.29,2.62-.59.11-1.04.17-1.33.18,0,0,0,0,0,0h0s0,0,0,0c.01,0,.02,0,.03,0Z" fill="#ccd9e2" stroke-width="0"/><path d="m97.25,168.75c-1.2.17-2.41.3-3.61.4-.03,0-.05-.01-.06-.04v-.08c-.02-.07.03-.13.1-.14,4.85-.87,9.53-2.22,14.22-3.62.91-.27.95-.17.13.31-.43.25-1.11.55-2.03.91-2.83,1.09-5.75,1.84-8.76,2.26Z" fill="#ccd9e2" stroke-width="0"/><path d="m57.04,180.72c.65-1.71,1.48-3.2,2.48-4.47.12-.16.28-.25.48-.27.05,0,.1.03.1.08,0,.02,0,.05-.02.06-1.11,1.56-1.97,3.23-2.56,5.01-.06.19-.05.36.03.52.03.05.09.07.14.04.01,0,.03-.02.03-.03.27-.37.52-.68.73-1.1.83-1.61,2.05-2.87,3.65-3.79.41-.32.73-.54.94-.66,5.33-2.96,10.85-4.7,16.61-6.11.69-.17,1.35-.27,2-.32.02,0,.03.02.03.03,0,.01,0,.02-.02.03-8.64,2.22-17.4,5.93-23.94,12.2-.06.05-.1.1-.13.14-.18.21-.29.18-.34-.1l-.22-1.26Z" fill="#ccd9e2" stroke-width="0"/><path d="m49.8,179.3c1.69.76,2.98,1.76,3.86,3,4.5,6.3,6.74,14.31,6.02,22.04-.85,9.16-6.52,16.39-14.97,19.82-4.43,1.8-9.58,2.58-14.33,2.59,2.32-.87,4.56-1.91,6.7-3.14,7.86-4.49,13.56-13.15,15.74-21.74,1.65-6.55,1.31-12.97-1.03-19.23-.42-1.13-1.14-2.07-2.15-2.82-.08-.06-.1-.13-.07-.22.05-.18.13-.28.22-.29Z" fill="#757a8a" stroke-width="0"/><path d="m42.37,198.28c-.04.88-.15,1.75-.32,2.62-.11.55-.17.54-.19-.02-.24-7.26,2.37-14.56,6.99-20.15.06-.08.13-.08.2-.01.12.11.14.25.06.43-.9,2.16-2.25,4.61-3.33,6.94-1.42,3.09-2.44,6.42-3.07,9.58-.04.21-.12.35-.24.42-.07.04-.11.1-.11.19Z" fill="#ccd9e2" stroke-width="0"/><path d="m22.32,204.83c-.52,2.72-.51,4.52-.46,6.88,0,.03-.01.05-.05.05h0s-.05-.01-.05-.04c-.25-1.97-.24-3.95,0-5.92.35-1.75.41-3.72.66-5.24.4-2.38.66-3.87,1.45-5.64.02-.04.03-.07.04-.11.11-.44.28-.86.51-1.23.6-.97,1.08-2.14,1.83-2.99.62-.71.89-1.53,1.52-2.21,2.06-2.22,4.08-3.48,6.28-5.13.03-.03.08-.02.11.01,0,0,0,.01.01.02l.02.07c.04.1.01.2-.06.27-1.38,1.29-2.4,2.21-3.05,2.75-5.66,4.7-7.55,11.39-8.76,18.45Z" fill="#fff" stroke-width="0"/><path d="m44.29,193.2c.63-2.06,1.75-4.24,2.86-6.09.45-.74.96-1.4,1.53-1.97.26-.26.35-.21.26.15-.5,2.03-1.73,3.95-2.46,5.85-2.2,5.79-3.56,11.77-4.1,17.95,0,.04-.02.06-.06.06h0s-.06-.02-.06-.06c-.02-5.02.45-10.74,2.03-15.89Z" fill="#ccd9e2" stroke-width="0"/><path d="m37.71,219.51c-2.22,2.91-6.98,4.59-10.52,4.9-.04,0-.06-.01-.06-.05h0s0-.06.04-.07c3.67-.79,6.97-2.36,9.9-4.7.17-.13.35-.21.55-.23.05,0,.1.03.1.08,0,.02,0,.05-.02.07Z" fill="#ccd9e2" stroke-width="0"/></svg>